<?xml version="1.0" encoding="UTF-8"?>
<svg id="Excel" xmlns="http://www.w3.org/2000/svg" viewBox="0 0 250 250">
  <defs>
    <style>
      .cls-1 {
        fill: #fff;
        stroke: #ff681d;
        stroke-miterlimit: 10;
        stroke-width: 10px;
      }

      .cls-2 {
        fill: #fa4616;
      }
    </style>
  </defs>
  <circle class="cls-1" cx="125" cy="125" r="109.3"/>
  <g id="Page-1">
    <path id="UiPath_Logo_full" data-name="UiPath Logo full" class="cls-2" d="m36.91,92.92h62.46v62.46h-62.46v-62.46Zm55.97,55.97v-49.49h-49.49v49.46h49.49v.03Zm-43.86-39.86v18.87c0,8.63,4.74,13.73,12.75,13.73s13-5.11,13-13.73v-18.87h-6.48v18.87c0,4.86-2.11,7.62-6.36,7.62-4.5,0-6.48-2.88-6.48-7.62v-18.87h-6.42Zm34.1,3.85c2.26,0,4.01-1.62,4.01-3.88,0-2.39-1.62-4.01-4.01-4.01s-4.01,1.62-4.01,4.01c.03,2.26,1.77,3.88,4.01,3.88Zm-3.24,3v25.39h6.48v-25.39h-6.48Zm38.72,15.02c7,0,11.62-4.13,11.62-10.98s-4.5-10.86-11.62-10.86h-12.23v32.36h6.48v-10.37h5.75v-.15Zm-.73-5.14h-5.11v-11.5h5.11c3.76,0,5.75,2.11,5.75,5.63,0,3.76-2.02,5.87-5.75,5.87Zm14.5,2.88c0,7.62,4.86,13,11.75,13,4.13,0,6.76-1.5,8.26-3.88v3.61h6.48v-25.48h-6.48v4.01c-1.62-2.63-4.25-4.25-8.26-4.25-7,0-11.75,5.51-11.75,13Zm19.97,0c0,4.37-2.75,7.25-6.76,7.25-4.37,0-6.61-3.12-6.61-7.25,0-4.5,2.51-7.37,6.61-7.37s6.76,3,6.76,7.37Zm22.73,7.13c-2.51,0-3.12-1.13-3.12-3.36v-11.01h5.63v-5.51h-5.63v-7h-6.48v7h-3v5.51h3v11.01c0,6,2.63,8.87,8.87,8.87h3.36v-5.51h-2.63Zm12.63-16.24v-11.99h-6.48v33.86h6.48v-13.49c0-4.37,2.26-7,6.12-7s5.75,2.51,5.75,6.36v14.01h6.48v-14.62c0-6.61-4.74-10.98-10.74-10.98-3.73-.03-6.12,1.35-7.62,3.85Zm17.86-12.11v1.01h2.11v6.48h1.25v-6.48h1.99v-1.01h-5.35Zm13.49,0l-2.63,6-2.51-6h-1.5v7.49h1.13v-5.75l2.51,5.75h.89l2.39-5.75v5.75h1.13v-7.49h-1.41Z"/>
  </g>
</svg>