<?xml version="1.0" encoding="UTF-8"?>
<svg id="Excel" xmlns="http://www.w3.org/2000/svg" xmlns:xlink="http://www.w3.org/1999/xlink" viewBox="0 0 250 250">
  <defs>
    <style>
      .cls-1 {
        stroke: #f7941d;
        stroke-miterlimit: 10;
        stroke-width: 10px;
      }

      .cls-1, .cls-2 {
        fill: #fff;
      }

      .cls-3 {
        fill: #ed6c47;
      }

      .cls-4 {
        fill: #d35230;
      }

      .cls-5 {
        opacity: .2;
      }

      .cls-5, .cls-6 {
        isolation: isolate;
      }

      .cls-7 {
        fill: #ff8f6b;
      }

      .cls-8 {
        fill: none;
      }

      .cls-6 {
        opacity: .1;
      }

      .cls-9 {
        fill: url(#linear-gradient);
      }
    </style>
    <linearGradient id="linear-gradient" x1="72.15" y1="160.94" x2="114.5" y2="87.58" gradientTransform="translate(0 252) scale(1 -1)" gradientUnits="userSpaceOnUse">
      <stop offset="0" stop-color="#ca4c28"/>
      <stop offset=".5" stop-color="#c5401e"/>
      <stop offset="1" stop-color="#b62f14"/>
    </linearGradient>
  </defs>
  <circle class="cls-1" cx="125.78" cy="127.74" r="109.3"/>
  <path class="cls-3" d="m137.58,133.64l-8.85-64.91h-.66c-32.18.09-58.25,26.16-58.35,58.35v.66l67.86,5.9Z"/>
  <path class="cls-7" d="m129.39,68.74h-.66v59.01l29.5,11.8,29.5-11.8v-.66c-.09-32.18-26.16-58.25-58.35-58.35Z"/>
  <path class="cls-4" d="m187.73,127.74v.65c-.09,32.19-26.17,58.26-58.36,58.36h-1.3c-32.19-.09-58.26-26.17-58.36-58.36v-.65h118.01Z"/>
  <path class="cls-8" d="m54.97,56.93h141.61v141.61H54.97V56.93Z"/>
  <path class="cls-6" d="m131.68,97.74v62.96c-.01,2.19-1.34,4.15-3.36,4.99-.64.27-1.34.41-2.04.41h-42.63c-.83-.94-1.62-1.95-2.36-2.95-7.52-10.03-11.58-22.22-11.57-34.75v-1.3c-.02-11.3,3.29-22.36,9.5-31.8.65-1,1.33-2.01,2.07-2.95h44.99c2.97.02,5.38,2.43,5.4,5.4Z"/>
  <path class="cls-5" d="m128.73,100.69v62.96c0,.7-.14,1.39-.41,2.04-.83,2.02-2.8,3.35-4.99,3.36h-37c-.93-.95-1.83-1.93-2.68-2.95-.83-.94-1.62-1.95-2.36-2.95-7.52-10.03-11.58-22.22-11.57-34.75v-1.3c-.02-11.3,3.29-22.36,9.5-31.8h44.11c2.97.02,5.38,2.43,5.4,5.4Z"/>
  <path class="cls-5" d="m128.73,100.69v57.06c-.02,2.97-2.43,5.38-5.4,5.4h-42.04c-7.52-10.03-11.58-22.22-11.57-34.75v-1.3c-.02-11.3,3.29-22.36,9.5-31.8h44.11c2.97.02,5.38,2.43,5.4,5.4Z"/>
  <path class="cls-5" d="m125.78,100.69v57.06c-.02,2.97-2.43,5.38-5.4,5.4h-39.09c-7.52-10.03-11.58-22.22-11.57-34.75v-1.3c-.02-11.3,3.29-22.36,9.5-31.8h41.16c2.97.02,5.38,2.43,5.4,5.4Z"/>
  <rect class="cls-9" x="60.87" y="95.29" width="64.91" height="64.91" rx="5.41" ry="5.41"/>
  <path class="cls-2" d="m93.91,109.71c3.52-.24,7.01.79,9.85,2.89,2.37,2.11,3.63,5.19,3.43,8.36.04,2.2-.55,4.37-1.69,6.25-1.16,1.85-2.82,3.32-4.8,4.24-2.26,1.05-4.73,1.57-7.22,1.52h-6.84v12.72h-7.01v-35.96h14.28Zm-7.28,17.75h6.03c1.91.14,3.81-.43,5.33-1.59,1.26-1.21,1.92-2.91,1.8-4.65,0-3.96-2.3-5.94-6.91-5.94h-6.25v12.19Z"/>
</svg>