<?xml version="1.0" encoding="UTF-8"?>
<svg id="Excel" xmlns="http://www.w3.org/2000/svg" xmlns:xlink="http://www.w3.org/1999/xlink" viewBox="0 0 250 250">
  <defs>
    <style>
      .cls-1 {
        fill: #185c37;
      }

      .cls-2, .cls-3 {
        fill: #fff;
      }

      .cls-4 {
        fill: #107c41;
      }

      .cls-5 {
        opacity: .2;
      }

      .cls-5, .cls-6 {
        isolation: isolate;
      }

      .cls-7 {
        fill: #33c481;
      }

      .cls-6 {
        opacity: .1;
      }

      .cls-8 {
        fill: #21a366;
      }

      .cls-9 {
        fill: url(#linear-gradient);
      }

      .cls-3 {
        stroke: #009444;
        stroke-miterlimit: 10;
        stroke-width: 10px;
      }
    </style>
    <linearGradient id="linear-gradient" x1="62.94" y1="164" x2="108.34" y2="85.37" gradientTransform="translate(0 252) scale(1 -1)" gradientUnits="userSpaceOnUse">
      <stop offset="0" stop-color="#18884f"/>
      <stop offset=".5" stop-color="#117e43"/>
      <stop offset="1" stop-color="#0b6631"/>
    </linearGradient>
  </defs>
  <circle class="cls-3" cx="125" cy="127.32" r="109.3"/>
  <g>
    <path class="cls-1" d="m136.24,124.15l-53.76-9.49v70.1c0,3.2,2.6,5.8,5.8,5.8h92.76c3.2,0,5.8-2.6,5.8-5.8h0v-25.83l-50.6-34.78Z"/>
    <path class="cls-8" d="m136.24,64.07h-47.96c-3.2,0-5.8,2.6-5.8,5.8h0v25.83l53.76,31.62,28.46,9.49,22.14-9.49v-31.62l-50.6-31.62Z"/>
    <path class="cls-4" d="m82.48,95.69h53.76v31.62h-53.76v-31.62Z"/>
    <path class="cls-6" d="m120.96,89.37h-38.47v79.05h38.47c3.2-.01,5.79-2.6,5.8-5.8v-67.46c-.01-3.2-2.6-5.79-5.8-5.8Z"/>
    <path class="cls-5" d="m117.79,92.53h-35.31v79.05h35.31c3.2-.01,5.79-2.6,5.8-5.8v-67.46c-.01-3.2-2.6-5.79-5.8-5.8Z"/>
    <path class="cls-5" d="m117.79,92.53h-35.31v72.73h35.31c3.2-.01,5.79-2.6,5.8-5.8v-61.14c-.01-3.2-2.6-5.79-5.8-5.8Z"/>
    <path class="cls-5" d="m114.63,92.53h-32.15v72.73h32.15c3.2-.01,5.79-2.6,5.8-5.8v-61.14c-.01-3.2-2.6-5.79-5.8-5.8Z"/>
    <rect class="cls-9" x="50.86" y="92.53" width="69.57" height="69.57" rx="5.8" ry="5.8"/>
    <path class="cls-2" d="m68.81,146.16l12.19-18.89-11.17-18.79h8.99l6.1,12.02c.56,1.14.95,1.99,1.16,2.55h.08c.4-.91.82-1.8,1.26-2.65l6.52-11.91h8.25l-11.46,18.68,11.75,19h-8.78l-7.04-13.19c-.33-.56-.61-1.15-.84-1.76h-.1c-.21.6-.48,1.17-.82,1.71l-7.25,13.24h-8.83Z"/>
    <path class="cls-7" d="m181.04,64.07h-44.8v31.62h50.6v-25.83c0-3.2-2.6-5.8-5.8-5.8h0Z"/>
    <path class="cls-4" d="m136.24,127.32h50.6v31.62h-50.6v-31.62Z"/>
  </g>
</svg>