<?xml version="1.0" encoding="UTF-8"?>
<svg id="Excel" xmlns="http://www.w3.org/2000/svg" xmlns:xlink="http://www.w3.org/1999/xlink" viewBox="0 0 250 250">
  <defs>
    <style>
      .cls-1 {
        fill: url(#linear-gradient-2);
      }

      .cls-2 {
        fill: url(#radial-gradient);
      }

      .cls-3 {
        fill: #fff;
        stroke: #ae82f4;
        stroke-miterlimit: 10;
        stroke-width: 10px;
      }

      .cls-4 {
        fill: url(#radial-gradient-2);
      }

      .cls-5 {
        fill: url(#radial-gradient-3);
      }

      .cls-6 {
        fill: url(#linear-gradient-3);
      }

      .cls-7 {
        fill: url(#linear-gradient);
      }
    </style>
    <radialGradient id="radial-gradient" cx="-1362.04" cy="274.55" fx="-1362.04" fy="274.55" r="2.97" gradientTransform="translate(-30794.93 37041.56) rotate(110.53) scale(33.37 -58.2)" gradientUnits="userSpaceOnUse">
      <stop offset=".06" stop-color="#ae7fe2"/>
      <stop offset="1" stop-color="#0078d4"/>
    </radialGradient>
    <linearGradient id="linear-gradient" x1="123.25" y1="97.29" x2="109.09" y2="121.78" gradientTransform="translate(0 252) scale(1 -1)" gradientUnits="userSpaceOnUse">
      <stop offset="0" stop-color="#114a8b"/>
      <stop offset="1" stop-color="#0078d4" stop-opacity="0"/>
    </linearGradient>
    <radialGradient id="radial-gradient-2" cx="-1304.27" cy="234.95" fx="-1304.27" fy="234.95" r="2.97" gradientTransform="translate(40851.58 -964.45) rotate(-8.37) scale(31.05 -20.51)" gradientUnits="userSpaceOnUse">
      <stop offset=".13" stop-color="#d59dff"/>
      <stop offset="1" stop-color="#5e438f"/>
    </radialGradient>
    <linearGradient id="linear-gradient-2" x1="158.03" y1="133.73" x2="142.86" y2="111.97" gradientTransform="translate(0 252) scale(1 -1)" gradientUnits="userSpaceOnUse">
      <stop offset="0" stop-color="#493474"/>
      <stop offset="1" stop-color="#8c66ba" stop-opacity="0"/>
    </linearGradient>
    <radialGradient id="radial-gradient-3" cx="-1407.69" cy="244.72" fx="-1407.69" fy="244.72" r="2.97" gradientTransform="translate(-31309.23 -18443.59) rotate(-165.77) scale(24.92 -41.96)" gradientUnits="userSpaceOnUse">
      <stop offset=".06" stop-color="#50e6ff"/>
      <stop offset="1" stop-color="#436dcd"/>
    </radialGradient>
    <linearGradient id="linear-gradient-3" x1="102.97" y1="150.04" x2="125.3" y2="150.04" gradientTransform="translate(0 252) scale(1 -1)" gradientUnits="userSpaceOnUse">
      <stop offset="0" stop-color="#2d3f80"/>
      <stop offset="1" stop-color="#436dcd" stop-opacity="0"/>
    </linearGradient>
  </defs>
  <circle class="cls-3" cx="125" cy="124.27" r="109.3"/>
  <path class="cls-2" d="m112.21,61.88l-.67.4c-1.06.64-2.06,1.36-3,2.15l1.93-1.36h16.36l2.97,22.52-14.87,14.87-14.87,10.34v11.92c0,8.32,4.35,16.04,11.47,20.35l15.66,9.48-33.08,19.29h-6.38l-11.89-7.2c-7.12-4.31-11.47-12.03-11.47-20.35v-40.08c0-8.33,4.35-16.05,11.48-20.36l35.69-21.59c.22-.13.44-.26.67-.39Z"/>
  <path class="cls-7" d="m112.21,61.88l-.67.4c-1.06.64-2.06,1.36-3,2.15l1.93-1.36h16.36l2.97,22.52-14.87,14.87-14.87,10.34v11.92c0,8.32,4.35,16.04,11.47,20.35l15.66,9.48-33.08,19.29h-6.38l-11.89-7.2c-7.12-4.31-11.47-12.03-11.47-20.35v-40.08c0-8.33,4.35-16.05,11.48-20.36l35.69-21.59c.22-.13.44-.26.67-.39Z"/>
  <path class="cls-4" d="m147.64,109.4v13.33c0,8.32-4.35,16.04-11.47,20.35l-35.69,21.6c-7.3,4.42-16.39,4.58-23.81.48l34.86,21.1c7.57,4.58,17.07,4.58,24.64,0l35.69-21.6c7.12-4.31,11.47-12.03,11.47-20.35v-9.63l-2.97-4.46-32.72-20.82Z"/>
  <path class="cls-1" d="m147.64,109.4v13.33c0,8.32-4.35,16.04-11.47,20.35l-35.69,21.6c-7.3,4.42-16.39,4.58-23.81.48l34.86,21.1c7.57,4.58,17.07,4.58,24.64,0l35.69-21.6c7.12-4.31,11.47-12.03,11.47-20.35v-9.63l-2.97-4.46-32.72-20.82Z"/>
  <path class="cls-5" d="m171.86,83.86l-35.69-21.59c-7.34-4.44-16.47-4.58-23.92-.41l-.71.43c-7.13,4.31-11.48,12.03-11.48,20.36v28.21l11.48-6.94c7.57-4.58,17.06-4.58,24.63,0l35.69,21.59c6.9,4.18,11.2,11.55,11.47,19.58,0-.26.01-.52.01-.78v-40.08c0-8.33-4.35-16.05-11.48-20.36Z"/>
  <path class="cls-6" d="m171.86,83.86l-35.69-21.59c-7.34-4.44-16.47-4.58-23.92-.41l-.71.43c-7.13,4.31-11.48,12.03-11.48,20.36v28.21l11.48-6.94c7.57-4.58,17.06-4.58,24.63,0l35.69,21.59c6.9,4.18,11.2,11.55,11.47,19.58,0-.26.01-.52.01-.78v-40.08c0-8.33-4.35-16.05-11.48-20.36Z"/>
</svg>