<?xml version="1.0" encoding="UTF-8" standalone="no"?>
<svg
   xmlns:dc="http://purl.org/dc/elements/1.1/"
   xmlns:cc="http://creativecommons.org/ns#"
   xmlns:rdf="http://www.w3.org/1999/02/22-rdf-syntax-ns#"
   xmlns:svg="http://www.w3.org/2000/svg"
   xmlns="http://www.w3.org/2000/svg"
   xmlns:sodipodi="http://sodipodi.sourceforge.net/DTD/sodipodi-0.dtd"
   xmlns:inkscape="http://www.inkscape.org/namespaces/inkscape"
   id="sprite-logo"
   viewBox="0 0 300 62.433859"
   version="1.1"
   style="text-align:center"
   sodipodi:docname="Pandora Logo 2019.svg"
   width="300"
   height="62.433861"
   inkscape:version="0.92.1 r15371">
  <metadata
     id="metadata11">
    <rdf:RDF>
      <cc:Work
         rdf:about="">
        <dc:format>image/svg+xml</dc:format>
        <dc:type
           rdf:resource="http://purl.org/dc/dcmitype/StillImage" />
        <dc:title>logo</dc:title>
      </cc:Work>
    </rdf:RDF>
  </metadata>
  <defs
     id="defs9" />
  <sodipodi:namedview
     pagecolor="#ffffff"
     bordercolor="#666666"
     borderopacity="1"
     objecttolerance="10"
     gridtolerance="10"
     guidetolerance="10"
     inkscape:pageopacity="0"
     inkscape:pageshadow="2"
     inkscape:window-width="1920"
     inkscape:window-height="1001"
     id="namedview7"
     showgrid="false"
     fit-margin-top="0"
     fit-margin-left="0"
     fit-margin-right="0"
     fit-margin-bottom="0"
     inkscape:zoom="1.5555556"
     inkscape:cx="141.75"
     inkscape:cy="29.549999"
     inkscape:window-x="-9"
     inkscape:window-y="-9"
     inkscape:window-maximized="1"
     inkscape:current-layer="sprite-logo" />
  <title
     id="title2">logo</title>
  <path
     d="m 188.25397,10.793651 h 1.26984 L 188.46561,0.1058201 188.35979,0 h -0.31746 v 0.1058201 l -1.16402,10.6878309 h 0.10582 z m 6.03174,0.74074 v -0.10582 l 1.79895,-9.5238091 V 1.7989418 l -0.31746,-0.1058201 -0.10582,0.1058201 -3.91535,9.1005292 z m -1.90476,4.126984 c 0.74074,0 1.48148,-0.63492 1.48148,-1.481481 0,-0.846561 -0.63492,-1.481481 -1.48148,-1.481481 -0.84656,0 -1.48148,0.63492 -1.48148,1.481481 0,0.846561 0.63492,1.481481 1.48148,1.481481 z m -4.12698,-0.5291 c 0.74074,0 1.48148,-0.634921 1.48148,-1.481482 0,-0.84656 -0.63492,-1.481481 -1.48148,-1.481481 -0.84656,0 -1.48148,0.634921 -1.48148,1.481481 -0.10582,0.952381 0.63492,1.481482 1.48148,1.481482 z m -6.03175,-3.597884 2.43386,-0.63492 h 0.10582 l -4.02116,-9.1005292 -0.10582,-0.1058201 -0.21164,0.1058201 -0.10582,0.1058201 1.79894,9.5238091 z m 0.31746,2.539683 c 0,0.84656 0.63492,1.481481 1.48148,1.481481 0.74074,0 1.48149,-0.634921 1.48149,-1.481481 0,-0.846561 -0.63493,-1.481481 -1.48149,-1.481481 -0.74074,0.10582 -1.48148,0.74074 -1.48148,1.481481 z M 12.804233,18.306878 H 0 c 0,0 0.31746032,3.068783 0.31746032,8.359788 V 53.439153 C 0.31746032,58.730158 0,61.798941 0,61.798941 l 0.10582011,0.10582 H 8.4656085 v -0.10582 c 0,0 -0.3174604,-3.068783 -0.3174604,-8.359788 v -7.830688 l 0.1058202,-0.10582 c 1.1640211,0.10582 3.7037037,0.21164 4.5502647,0.21164 8.571428,0 15.978836,-5.185185 15.978836,-14.074074 -0.10582,-8.465608 -7.513228,-13.333333 -15.978836,-13.333333 z m -0.423281,20.31746 c -0.952381,0 -3.2804229,-0.10582 -4.2328039,-0.31746 V 25.396825 h 4.8677249 c 4.338624,0 7.724868,1.693122 7.724868,6.243386 0,4.550265 -2.962963,6.984127 -8.359789,6.984127 z m 40.10582,-16.825397 c -0.95238,-2.222222 -1.269841,-3.492063 -1.269841,-3.492063 l -0.10582,-0.10582 h -6.666667 l -0.10582,0.10582 c 0,0 -0.21164,1.269841 -1.164021,3.492063 L 28.465608,57.142857 c -1.269841,2.962963 -2.539682,4.656084 -2.539682,4.656084 v 0.10582 h 8.571428 l 0.105821,-0.10582 c 0,-0.21164 0.21164,-1.269841 1.269841,-3.915344 l 2.645503,-6.666666 h 18.941798 l 2.857143,6.666666 c 0.952381,2.539683 1.481482,3.915344 1.481482,3.915344 l 0.10582,0.10582 h 8.571428 v -0.10582 c 0,0 -1.164021,-1.587301 -2.539682,-4.656084 z M 41.481481,44.021164 47.619048,28.677248 h 0.10582 l 6.666666,15.343916 z m 71.957669,-25.714286 -7.61904,-0.10582 -0.10582,0.10582 c 0,0 0.31746,3.068783 0.31746,8.359788 v 21.904762 h -0.10582 L 82.433862,18.306878 h -8.359788 c 0.952381,2.010582 1.481482,3.386243 1.481482,4.338624 v 30.793651 c 0,5.291005 -0.317461,8.359788 -0.317461,8.359788 l 0.10582,0.10582 h 7.619048 l 0.10582,-0.10582 c 0,0 -0.31746,-3.068783 -0.31746,-8.359788 V 31.111111 h 0.10582 l 23.597887,30.68783 h 7.08994 l 0.10582,-0.10582 c 0,0 -0.31746,-3.068783 -0.31746,-8.359788 V 26.666666 c -0.21164,-5.291005 0.10582,-8.359788 0.10582,-8.359788 z m 23.70371,0 h -14.60318 l -0.10582,0.10582 c 0,0 0.31746,3.068783 0.31746,8.359788 v 26.772487 c 0,5.291005 -0.31746,8.359788 -0.31746,8.359788 l 0.10582,0.105821 h 4.44445 c 2.96296,0 6.24338,0.42328 9.94709,0.42328 13.33333,0 22.85714,-9.417989 22.85714,-22.116402 0,-12.910053 -9.20635,-22.010582 -22.6455,-22.010582 z m -0.5291,36.719577 c -2.11641,0 -4.02117,-0.105821 -5.18519,-0.423281 -0.63492,-0.21164 -0.84656,-0.42328 -0.84656,-1.587301 V 25.396825 h 5.82011 c 9.41799,0 15.44973,6.349206 15.44973,14.814815 0,8.359788 -6.03174,14.814815 -15.23809,14.814815 z m 51.64021,-37.354498 c -12.59259,0 -22.32804,9.73545 -22.32804,22.328043 0,12.698412 9.73545,22.328042 22.32804,22.328042 12.69841,0 22.32804,-9.62963 22.32804,-22.328042 0,-12.592593 -9.62963,-22.328043 -22.32804,-22.328043 z m 0,37.566138 c -8.04233,0 -14.39154,-6.560847 -14.39154,-15.132275 0,-8.571429 6.24339,-15.132275 14.39154,-15.132275 8.14815,0 14.39153,6.560846 14.39153,15.132275 0,8.465608 -6.24338,15.132275 -14.39153,15.132275 z m 53.33333,-8.148148 c -1.0582,-1.693122 -2.6455,-3.068783 -4.33862,-3.597884 v -0.10582 c 4.55026,-0.952381 8.78307,-6.243386 8.78307,-11.534392 0,-7.195767 -5.50265,-13.544973 -14.07408,-13.544973 h -13.96825 l -0.10582,0.10582 c 0,0 0.31746,3.068783 0.31746,8.359788 v 26.772487 c 0,5.291005 -0.31746,8.359788 -0.31746,8.359788 l 0.10582,0.105821 h 8.35979 l 0.10582,-0.105821 c 0,0 -0.31746,-3.068783 -0.31746,-8.359788 v -8.359788 c 4.12698,0 5.8201,0.846561 7.30158,3.174603 l 3.59789,5.608466 c 2.96296,4.761904 4.12698,7.724867 4.12698,7.724867 l 0.10582,0.10582 h 9.94709 v -0.10582 c 0,0 -2.53968,-3.068783 -5.39682,-7.724867 z m -11.53439,-8.888889 c -0.95238,0 -2.75132,0 -3.91534,-0.21164 V 25.396825 h 4.7619 c 4.65609,0 7.19577,3.068783 7.19577,6.560847 0,3.280423 -2.53968,6.243386 -8.04233,6.243386 z m 67.40741,18.941799 -15.44974,-35.343916 c -0.95238,-2.222222 -1.26984,-3.492063 -1.26984,-3.492063 l -0.10582,-0.10582 h -6.77249 l -0.10582,0.10582 c 0,0 -0.21164,1.269841 -1.16402,3.492063 l -14.60317,35.343916 c -1.26984,2.962963 -2.53968,4.656084 -2.53968,4.656084 v 0.10582 h 8.57142 l 0.10582,-0.10582 c 0,-0.21164 0.21164,-1.269841 1.26985,-3.915344 l 2.6455,-6.666666 h 18.9418 l 2.85714,6.666666 c 0.95238,2.539683 1.48148,3.915344 1.48148,3.915344 l 0.10582,0.10582 H 300 v -0.10582 c 0,0 -1.16402,-1.587301 -2.53968,-4.656084 z m -26.45503,-13.121693 6.13757,-15.343916 h 0.10582 l 6.66666,15.343916 z"
     style="text-align:center;stroke-width:1.05820107"
     id="path4"
     inkscape:connector-curvature="0" />
</svg>
