<?xml version="1.0" encoding="UTF-8" standalone="no"?>
<!DOCTYPE svg PUBLIC "-//W3C//DTD SVG 1.1//EN" "http://www.w3.org/Graphics/SVG/1.1/DTD/svg11.dtd">
<svg width="100%" height="100%" viewBox="0 0 634 196" version="1.1" xmlns="http://www.w3.org/2000/svg" xmlns:xlink="http://www.w3.org/1999/xlink" xml:space="preserve" xmlns:serif="http://www.serif.com/" style="fill-rule:evenodd;clip-rule:evenodd;stroke-linejoin:round;stroke-miterlimit:2;">
    <g transform="matrix(1,0,0,1,153,-173)">
        <path d="M34.5,219L15.7,264.6L-43.5,174.4L34.5,219ZM19.4,270.8L38.1,316.3L38.1,225.2L19.4,270.8ZM-43.5,367.2L34.4,322.7L15.7,277L-43.5,367.2ZM-132.3,322.6L-54.4,367.1L-113.5,277L-132.3,322.6ZM-136,316.3L-117.3,270.8L-136,225.3L-136,316.3ZM-110.7,270.8L-49,365L12.8,270.8L-49,176.5L-110.7,270.8ZM-132.3,219L-113.6,264.6L-54.4,174.4L-132.3,219Z" style="fill:rgb(237,29,36);fill-rule:nonzero;"/>
    </g>
    <g transform="matrix(1,0,0,1,153,-173)">
        <path d="M-80,266.1C-79.5,266.6 -78.6,267.4 -78.2,267.7C-78.3,268.1 -78.3,268.7 -78.2,269.4C-83.2,275 -87.8,276.1 -90,276.1C-85.4,272.9 -81.4,267.8 -80,266.1M-73.3,285.6C-74.2,285.6 -76.9,287.3 -76.5,288.3C-76.1,289.3 -75.2,289.6 -75.5,291.6C-75.7,292.5 -76.2,294.2 -77.8,293.5C-79.8,292.8 -79.5,287.5 -79.1,285.2C-78.5,281.5 -78,276.4 -78.7,271.5C-81.6,274.3 -84.3,275.9 -86.4,276.6L-86.5,276.6C-86.1,279.7 -86.1,282.9 -85.9,284.7C-85.4,287.2 -85.9,297.4 -78.4,298.1C-75.5,298.3 -72.8,296.9 -71.8,293.3C-70.8,290.4 -71.2,285.6 -73.3,285.6M-52.5,283.2C-53,284.3 -53.8,286 -53.8,286C-53.8,286 -52.7,287.1 -51,287.9C-51,287.9 -51.3,280.6 -51.2,279.7C-51.2,279.7 -52.2,282.5 -52.5,283.2M-12.7,290.6C-13.3,291.9 -13.6,294.3 -13.6,295.1C-13.8,297.4 -13.6,299.4 -13.1,300.9C-12.4,302.9 -12.7,304.1 -12.7,304.1C-11.5,303.4 -12.1,301.7 -12.3,299.7C-12.4,297.7 -12,293.3 -11.2,291.2C-10.4,289.1 -10.8,287.6 -10.8,287.6C-11.2,288.9 -12.1,289.2 -12.7,290.6M-52.5,303.4C-53.1,303.5 -53.4,304.6 -53.6,305.5C-52.5,305.4 -51.6,305.2 -51,305C-51.3,304.4 -51.9,303.3 -52.5,303.4M-53.5,299.9C-54.8,299.1 -58,295.7 -61.3,294.3C-61.3,294.3 -60.9,298.6 -61.2,300.2C-61.6,302.4 -61.9,303.8 -61.5,304.5C-61.1,303.8 -60.4,302.8 -59.5,302.8C-59.1,302.7 -58.7,302.9 -58.4,303.3C-58.1,303.6 -57.9,304 -57.7,304.4C-57.4,303.7 -56.7,302.9 -55.9,302.8C-55,302.7 -54.4,303.5 -54.1,304.3C-53.8,303.5 -53.3,302.7 -52.6,302.6C-51.4,302.4 -50.6,303.7 -50.2,304.5C-49.7,303.5 -50.5,301.8 -50.5,299.9C-50.6,299.9 -52.4,300.7 -53.5,299.9M-59.6,303.7C-60,303.7 -60.6,304.5 -60.9,305.2C-60.6,305.4 -60.2,305.5 -59.7,305.5C-59.3,305.5 -58.9,305.5 -58.5,305.6C-58.5,304.9 -58.8,304.3 -59.1,303.9L-59.6,303.7ZM-55.9,303.7C-56.7,303.8 -57.1,304.8 -57.3,305.6C-56.5,305.7 -55.5,305.7 -54.6,305.6C-54.9,304.8 -55.4,303.7 -55.9,303.7M-49,291.6C-49.2,291.9 -48.5,292.9 -47.5,293.7C-47.1,292.6 -47,291.8 -47.3,291.3C-47.9,291.2 -48.8,291.2 -49,291.6M-50.4,294.3C-50.7,294.8 -50,295.8 -49.3,296.5C-49,296.1 -48.8,295.7 -48.4,295.2C-48.2,294.9 -48.1,294.7 -47.9,294.5C-48.9,294.1 -50.1,293.8 -50.4,294.3M-51.8,296.8L-52.2,297C-52.3,297.3 -52,298 -51.6,298.7C-51.1,298.6 -50.5,298 -49.8,297.3C-50.5,296.9 -51.3,296.7 -51.8,296.8M-16,303.5C-16.5,303.6 -17,304.6 -17.2,305.5C-16.2,305.4 -15.3,305.3 -14.6,304.9C-14.9,304.2 -15.4,303.4 -16,303.5M-6.4,277.6C-6.4,277.6 -5.3,279.7 -5.3,282.2C-5.3,284.5 -6,287.1 -6,287.1C-6,287.1 -8.4,284.9 -8,278.2C-8,278.2 -7.6,268.6 -9.4,264.5C-9.4,264.5 -11.3,273.2 -12,275.8C-12.7,278.5 -12,283 -11.7,284.4C-11.2,286.5 -12.8,287.5 -13.9,290.1C-14.8,292.3 -14.9,294.7 -15,296C-15.1,297.7 -14.9,299.9 -14.1,302.2C-13.8,303.1 -13.8,304 -14.1,304.3C-14.5,303.6 -15.2,302.5 -16.3,302.6C-17.1,302.7 -17.6,303.5 -17.9,304.2C-18.2,303.5 -18.7,302.7 -19.6,302.7C-20.4,302.7 -21.1,303.4 -21.5,304.1C-21.7,303.7 -21.9,303.3 -22.1,303C-22.5,302.6 -22.8,302.4 -23.2,302.4C-24.1,302.4 -24.9,303.6 -25.3,304.2C-25.6,303.8 -25.7,303.2 -25.5,302.4C-24.7,298.5 -23.2,292 -24.7,288.7C-26.3,285.4 -32.5,279.7 -33,273C-33,273 -34.1,273.8 -33,277.1C-33,277.1 -40.5,278 -49.7,275.2C-49.7,275.2 -49.5,273.8 -48.5,271.6C-48.5,271.6 -50.7,273.3 -51.9,278C-52.3,279.7 -54.6,284.2 -55.1,285.5C-55.7,286.8 -52.2,288.7 -51,289.2C-50.1,289.6 -48.9,289.8 -48,290.4C-48.7,290.4 -49.4,290.6 -49.7,291.2L-49.8,291.7C-49.8,292.3 -49.4,292.7 -49.1,293.3C-49.8,293.2 -50.7,293.2 -51.1,293.9C-51.2,294.1 -51.3,294.3 -51.3,294.6C-51.3,295.1 -51.1,295.6 -50.8,296.1C-51.3,296 -51.7,296 -52,296.1C-52.5,296.2 -52.8,296.4 -52.9,296.7C-53.3,297.3 -52.9,298.2 -52.5,298.9C-53.2,298.7 -53.9,298 -54.8,297.4C-57.1,295.4 -62.4,292.1 -63.3,291.7C-64.3,291.3 -66.4,290 -66,285.7C-65.6,281.5 -64.4,270.1 -63.7,267.2C-63.7,267.2 -64.5,267.8 -65.1,269.8L-68.2,265.1C-67,264.3 -66,262.7 -65.4,261.8C-64.7,262.7 -63.4,264.8 -63.4,264.8L-62.9,264.1C-62.8,264 -61.2,262.2 -60.7,260.7C-60.1,259.1 -59.7,257.2 -59.4,255.5C-59.2,254.5 -59,253.7 -58.8,253.2L-58.3,251.9C-57.1,249.2 -54.4,243.8 -58.1,240C-61.8,236.2 -66.7,238.1 -66.7,238.1C-66.7,238.1 -61.3,238.2 -59.1,240.8C-58,242.1 -57.7,243.6 -57.7,245C-57.7,247.4 -58.8,249.7 -59.5,251.4L-60.1,252.9C-60.3,253.4 -60.5,254.3 -60.6,255.3C-60.9,256.9 -61.3,258.8 -61.9,260.3C-62.2,261.1 -62.9,262.1 -63.4,262.7C-64,261.9 -65.7,259.4 -65.7,259.4L-66.1,260.4C-66.5,261.3 -67.9,263.7 -69.3,264.3C-70.9,265.3 -72.2,265.6 -73.3,266.4C-74,267 -74.7,267.5 -75,269.4C-75.4,271 -76.7,271.6 -76.7,271.6C-76.7,271.6 -76.7,270.9 -76.9,270C-77.4,268.6 -77,267.2 -77,267.2L-80.2,264.6L-80.6,265.1C-80.6,265.2 -83.4,269 -87.1,272.4L-87.2,272.5C-87.3,272 -87.3,271.7 -87.4,271.1C-87.4,271.1 -88.6,272.7 -92.5,272.8C-88,269.6 -87.8,268 -87.8,268C-88.2,263.4 -87.8,258.4 -87.8,258.4C-88,256.7 -88.3,251.8 -87.8,249.9C-87.4,247.9 -86.9,246.3 -85.5,242.2C-84,238.2 -80.8,238.4 -80.8,238.4C-80.8,238.4 -77.9,234.1 -74.5,233.8C-69.1,233.2 -65.1,234.8 -62,234.3C-58.9,233.7 -51.1,231.8 -46.7,232.3C-42.3,232.7 -27.3,235.8 -22,240.2C-16.6,244.6 -8.4,250.8 -7.3,262.5C-6.1,273.8 -6.4,277.6 -6.4,277.6M-73.5,250.2C-73.2,249.5 -71.7,248 -71.7,248C-71.7,248 -73.2,247.3 -74.5,248.5C-75.8,249.8 -75,252.3 -75,252.3C-75,252.3 -73.8,251 -73.5,250.2M-59.6,242.5C-61.3,239.4 -64.8,240.5 -64.8,240.5C-62.8,241 -60.9,242.2 -60.6,243.4C-60,245.1 -60.5,248.5 -60.5,248.5C-60.5,248.5 -58,245.6 -59.6,242.5M-19.4,303.6C-20.2,303.6 -20.7,304.7 -21,305.6L-18.2,305.6C-18.4,304.7 -18.8,303.6 -19.4,303.6M-23,303.4C-23.4,303.4 -24.1,304.2 -24.5,304.8C-23.8,305.2 -22.9,305.4 -22,305.5C-22,304.7 -22.2,304 -22.6,303.6L-23,303.4Z" style="fill:white;fill-rule:nonzero;"/>
    </g>
    <g transform="matrix(1,0,0,1,153,-173)">
        <path d="M464,271.7L464,328.2L462.8,328.7C447.8,335.2 427.3,339.1 408.3,339.1C361,339.1 329.2,313 329.2,274.1C329.2,233.7 363.3,205.4 412.3,205.4C427.3,205.4 441.9,207.6 455.7,211.8L457.1,212.3L457.1,238.2L454.4,237C441.3,231.4 428.3,228.7 414.4,228.7C381.5,228.7 361.8,245.1 361.8,272.5C361.8,299.2 380.4,315.8 410.3,315.8C418.8,315.8 427.1,314.5 433,312.5L433,271.8L464,271.8L464,271.7ZM317.3,306.8C305.1,312.8 294.2,315.4 281.8,315.4C253.1,315.4 234.6,298.4 234.6,272.1C234.6,245.6 253.5,228.3 282.7,228.3C296.9,228.3 304.8,231.9 315.7,236.9L318.4,238.1L318.4,212.2L317.2,211.7C307.4,208 298,205 282,205C235.7,205 202.1,233.5 202.1,272.9C202.1,313.5 231.4,338.7 278.7,338.7C293.5,338.7 302.7,336.4 319.5,328.5L320.6,328L320,305.5L317.3,306.8ZM143.8,259.3C130.8,253.7 119.5,248.9 119.5,240C119.5,229.5 132.3,228.3 137.8,228.3C148.8,228.3 160.4,231 172.2,236.2L174.9,237.4L174.9,212L173.7,211.5C164.1,207.4 150.7,205 136.8,205C102.5,205 86.9,224.1 86.9,241.9C86.9,264.6 107.3,273.5 125.3,281.4C139,287.4 150.8,292.6 150.8,302.3C150.8,312 139.1,315.4 128.1,315.4C114.7,315.4 99.7,307.7 91.9,303.1L89,301.4L89,326.4L89.9,327C100.9,333.6 110.8,338.6 128.8,338.6C161.5,338.6 183.4,323.2 183.4,300.4C183.4,276.4 161.5,266.9 143.8,259.3M68.3,174.4L62.5,174.4L62.5,367.1L68.3,367.1L68.3,174.4Z" style="fill:rgb(237,29,36);fill-rule:nonzero;"/>
    </g>
</svg>
