<?xml version="1.0" encoding="UTF-8" standalone="no"?>
<!DOCTYPE svg PUBLIC "-//W3C//DTD SVG 1.1//EN" "http://www.w3.org/Graphics/SVG/1.1/DTD/svg11.dtd">
<svg width="100%" height="100%" viewBox="0 0 928 357" version="1.1" xmlns="http://www.w3.org/2000/svg" xmlns:xlink="http://www.w3.org/1999/xlink" xml:space="preserve" xmlns:serif="http://www.serif.com/" style="fill-rule:evenodd;clip-rule:evenodd;stroke-linejoin:round;stroke-miterlimit:2;">
    <g transform="matrix(1,0,0,1,-135,-221)">
        <path d="M251.494,240.665L207.98,240.665L207.98,355.64L182.005,355.64L182.005,240.665L138.462,240.665L138.462,223.386L251.494,223.386L251.494,240.665ZM362.643,355.64L337.625,355.64L337.625,307.981C337.625,300.327 336.407,295.166 334.001,292.355C330.841,288.383 324.318,286.383 314.49,286.383C302.663,286.383 295.009,289.717 291.269,296.443C289.066,300.037 287.963,307.053 287.963,317.518L287.963,355.64L262.916,355.64L262.916,223.589L287.964,223.589L287.964,280.671C291.095,277.366 295.588,272.322 301.531,270.351C307.591,268.553 313.998,267.712 320.839,267.712C328.666,267.712 335.392,268.524 340.871,270.176C346.35,271.771 350.786,274.438 354.178,278.003C359.802,283.715 362.643,294.673 362.643,306.182L362.643,355.64ZM468.689,311.749C468.689,304.24 465.674,297.92 459.76,292.876C453.411,287.426 444.743,284.73 433.727,284.73C423.348,284.73 415.114,287.338 408.94,292.586C402.765,297.862 399.663,304.24 399.663,311.748C399.663,319.373 402.591,325.867 408.506,331.201C414.362,336.593 422.798,339.289 433.727,339.289C444.598,339.289 453.121,336.738 459.296,331.52C465.587,326.33 468.689,319.808 468.689,311.749M492.838,355.408L467.762,355.408L467.762,342.652C465.653,344.614 463.317,346.317 460.804,347.725C458.165,349.204 455.006,350.712 451.382,352.074C448.309,353.176 445.004,354.016 441.641,354.654C438.221,355.204 434.538,355.552 430.712,355.552C413.695,355.552 400.069,351.262 389.951,342.652C379.689,333.984 374.644,323.605 374.644,311.458C374.644,299.862 379.747,288.731 390.01,280.323C400.272,271.974 413.608,267.741 429.987,267.741C434.249,267.741 437.959,268.06 441.206,268.553C444.541,269.075 447.874,269.974 451.121,271.163C454.194,272.119 457.093,273.395 459.76,274.989C462.398,276.583 465.094,279.802 467.761,282.207L467.761,267.539L492.838,267.539L492.838,355.408ZM662.083,316.909C662.083,308.994 657.096,303.226 647.152,299.659C639.963,297.166 630.02,295.92 617.235,295.92L605.378,295.92L605.378,338.593L620.685,338.593C632.629,338.593 642.08,337.26 648.863,334.564C657.705,330.853 662.083,324.997 662.083,316.909M646.544,260.204C646.544,252.724 642.891,247.361 635.644,244.027C630.02,241.505 621.381,240.259 609.698,240.259L605.378,240.259L605.378,280.555L609.002,280.555C615.582,280.555 620.888,280.323 625.004,279.859C629.121,279.367 632.629,278.411 635.644,277.047C642.892,273.859 646.544,268.264 646.544,260.205M688.086,317.866C688.086,324.099 686.464,329.665 683.187,334.42C679.911,339.203 674.896,343.261 668.171,346.596C662.227,349.524 655.676,351.727 648.254,353.234C640.978,354.655 632.629,355.38 623.439,355.38L579.431,355.38L579.431,223.445L603.117,223.445C623.902,223.445 639.528,225.794 650.168,230.431C664.14,236.432 671.156,246.347 671.156,260.147C671.156,265.278 669.417,270.235 666.025,275.047C662.663,279.888 657.966,283.339 651.936,285.368L651.936,283.919C662.083,285.339 670.663,289.339 677.622,296.036C684.608,302.733 688.086,309.981 688.086,317.866M784.885,301.254C781.378,289.774 771.753,284.034 755.982,284.034C752.156,284.034 748.676,284.382 745.459,285.107C742.328,285.83 739.341,287.049 736.529,288.672C731.109,291.6 727.513,295.775 725.774,301.254L784.885,301.254ZM811.063,331.984C805.178,339.579 797.496,345.32 787.987,349.378C778.536,353.349 767.927,355.35 756.243,355.35C739.341,355.35 725.571,351.32 714.903,343.348C704.206,335.376 698.872,325.085 698.872,312.444C698.872,305.922 700.031,298.848 702.378,293.717C704.727,288.499 708.496,283.86 713.395,279.715C723.6,271.597 737.747,267.539 755.895,267.539C773.84,267.539 787.407,271.597 796.598,279.685C805.758,287.715 810.396,298.094 810.396,310.676L810.396,315.634L723.89,315.634C723.89,321.809 726.876,327.317 732.819,332.187C739.052,336.767 746.937,339.086 756.301,339.086C760.359,339.086 763.809,338.825 766.708,338.332C769.549,337.868 772.303,336.999 774.971,335.753C777.29,334.477 779.696,332.825 782.247,330.853C784.885,328.911 787.407,326.505 789.987,323.78L811.063,331.984ZM931.054,267.828L871.015,355.524L811.845,267.828L840.633,267.741L871.131,317.633L902.469,267.973L931.054,267.828Z" style="fill:rgb(1,120,64);fill-rule:nonzero;"/>
    </g>
    <g transform="matrix(1,0,0,1,-135,-221)">
        <path d="M551.862,240.983C551.862,250.666 544.151,258.493 534.497,258.493C524.959,258.493 517.19,250.666 517.19,240.983C517.19,231.329 524.959,223.444 534.497,223.444C544.151,223.444 551.862,231.329 551.862,240.984" style="fill:rgb(173,132,26);fill-rule:nonzero;"/>
    </g>
    <g transform="matrix(1,0,0,1,-135,-221)">
        <path d="M547.224,355.263L521.51,355.263L521.51,267.48L547.224,267.48L547.224,355.263ZM138.694,377.092C138.694,377.092 440.858,360.742 741.98,390.254C952.825,410.895 1061.54,444.582 1061.54,491.342C1061.54,538.191 928.3,583.879 449.179,575.646C449.179,575.646 808.165,557.847 808.715,491.778C808.715,491.778 824.486,401.966 138.694,377.092" style="fill:rgb(1,120,64);fill-rule:nonzero;"/>
    </g>
    <g transform="matrix(1,0,0,1,-135,-221)">
        <path d="M314.954,552.831C618.974,565.674 914.617,499.547 654.082,442.378C386.559,383.76 138.693,389.616 138.693,389.616C138.693,389.616 592.447,426.869 598.826,484.79C603.579,528.102 314.953,552.831 314.953,552.831" style="fill:rgb(173,132,26);fill-rule:nonzero;"/>
    </g>
</svg>
