<svg width="389" height="80" viewBox="0 0 389 80" xmlns="http://www.w3.org/2000/svg" xmlns:xlink="http://www.w3.org/1999/xlink">
    <defs>
        <linearGradient x1="-.001%" y1="50.001%" x2="99.999%" y2="50.001%" id="b">
            <stop stop-color="#ED3F36" offset="0%"/>
            <stop stop-color="#B31F2A" offset="100%"/>
        </linearGradient>
        <linearGradient x1="0%" y1="50%" x2="100%" y2="50%" id="e">
            <stop stop-color="#ED3F36" offset="0%"/>
            <stop stop-color="#B31F2A" offset="100%"/>
        </linearGradient>
        <linearGradient x1="0%" y1="50%" x2="99.999%" y2="50%" id="h">
            <stop stop-color="#2A3B8E" offset="0%"/>
            <stop stop-color="#1C75BA" offset="100%"/>
        </linearGradient>
        <linearGradient x1="0%" y1="50.001%" x2="99.999%" y2="50.001%" id="k">
            <stop stop-color="#1C75BA" offset="0%"/>
            <stop stop-color="#2A3B8E" offset="100%"/>
        </linearGradient>
        <path d="m.065 23.023 18.593 18.7s6.206-12.653 17.658-22.684C43.53 12.72 52.82 7.445 63.95 7.024c.157-.008.326-.018.486-.021 0 0-8.61-6.643-22.02-6.643-11.42 0-26.322 4.818-42.35 22.663" id="a"/>
        <path d="M28.288 23.07c-7.209 6.317-16.5 11.593-27.63 12.014-.166.006-.323.018-.488.02 0 0 29.524 22.78 64.37-16.018L45.953.256S39.738 13.037 28.288 23.07" id="d"/>
        <path d="M.088 11.202c4.566 1.994 13.076 7.613 21.78 20.824L34.65 7.41c-2.187-2.757-5.188-5.602-7.126-7.29C11.175.133 2.707 8.404.088 11.203" id="g"/>
        <path d="M.25 24.851c2.137 2.698 5.353 5.776 7.805 7.838 10.538-1.851 17.619-3.278 26.403-11.415-4.627-2.1-12.93-8.147-21.426-21.035L.25 24.85z" id="j"/>
    </defs>
    <g fill="none" fill-rule="evenodd">
        <path d="M33.14 79.754c-13.655.01-22.55-6.565-23.11-6.99l-5.395-4.775-.082-.131-.094-.094c-.112-.118-2.715-2.835-3.755-4.149L0 62.721l14.334-27.609-10.563-10.62 1.112-1.24C12.4 14.885 20.283 8.685 28.32 4.824 34.975 1.626 41.773.004 48.53 0c13.885-.01 22.772 6.726 23.142 7.01 1.998 1.48 5.039 3.933 5.572 4.775l.067.114.098.093c1.54 1.54 2.857 2.991 3.915 4.324l.702.891-14.37 27.684 10.24 10.38-1.105 1.23C69.272 64.868 61.388 71.07 53.35 74.93c-6.652 3.197-13.452 4.82-20.209 4.825" fill="#FFF"/>
        <g transform="translate(6.148 1.407)">
            <mask id="c" fill="#fff">
                <use xlink:href="#a"/>
            </mask>
            <path d="m.065 23.023 18.593 18.7s6.206-12.653 17.658-22.684C43.53 12.72 52.82 7.445 63.95 7.024c.157-.008.326-.018.486-.021 0 0-8.61-6.643-22.02-6.643-11.42 0-26.322 4.818-42.35 22.663" fill="url(#b)" mask="url(#c)"/>
        </g>
        <g transform="translate(10.92 36.239)">
            <mask id="f" fill="#fff">
                <use xlink:href="#d"/>
            </mask>
            <path d="M28.288 23.07c-7.209 6.317-16.5 11.593-27.63 12.014-.166.006-.323.018-.488.02 0 0 29.524 22.78 64.37-16.018L45.953.256S39.738 13.037 28.288 23.07" fill="url(#e)" mask="url(#f)"/>
        </g>
        <g transform="translate(45.274 9.995)">
            <mask id="i" fill="#fff">
                <use xlink:href="#g"/>
            </mask>
            <path d="M.088 11.202c4.566 1.994 13.076 7.613 21.78 20.824L34.65 7.41c-2.187-2.757-5.188-5.602-7.126-7.29C11.175.133 2.707 8.404.088 11.203" fill="url(#h)" mask="url(#i)"/>
        </g>
        <g transform="translate(1.853 37.67)">
            <mask id="l" fill="#fff">
                <use xlink:href="#j"/>
            </mask>
            <path d="M.25 24.851c2.137 2.698 5.353 5.776 7.805 7.838 10.538-1.851 17.619-3.278 26.403-11.415-4.627-2.1-12.93-8.147-21.426-21.035L.25 24.85z" fill="url(#k)" mask="url(#l)"/>
        </g>
        <g fill="#0768B0">
            <path d="M341.966 35.562c-.37.727-.722 1.762-1.04 3.091-.663 2.164-1.16 4.514-1.21 6.48-.119 4.17.84 7.26 2.92 9.441 2.792 2.934 7.864 4.371 15.326 4.526 14.972.309 24.287-6.2 27.853-19.446.562-2.235.878-4.286.93-6.095.1-3.624-.88-6.518-2.918-8.608-2.904-2.982-7.945-4.598-15.23-4.598-6.71 0-12.532 1.357-17.045 3.822-3.67 2.004-6.293 4.523-7.807 7.49h12.02c.69-1.128 1.745-2.165 3.154-3.088 2.028-1.34 4.388-2.022 7.007-2.022 3.045 0 5.312.747 6.747 2.223 1.294 1.323 1.911 3.236 1.848 5.678-.052 1.584-.37 3.44-.954 5.515-1.38 5.078-3.34 8.665-5.824 10.656-1.95 1.616-4.638 2.433-7.974 2.433-3.039 0-5.257-.694-6.59-2.066-1.062-1.09-1.568-2.599-1.516-4.492.02-.81.408-2.4.717-3.676l.405-1.359h3.432l1.551-5.905h-15.802zM86.792 58.654h10.656l10.215-37.636H96.94zM216.699 21c-4.384 0-8.311 1.697-11.673 5.049-3.532 3.515-6.138 8.397-7.754 14.51-.396 1.314-.656 2.466-.803 3.551a26.343 26.343 0 0 0-.275 3.167c-.096 3.849.804 6.768 2.67 8.686 2.02 2.067 5.217 2.768 9.599 2.675h7.638l1.639-6.233c-3.377-.042-5.843-.836-7.333-2.366-1.19-1.222-1.767-2.906-1.716-5.012.013-.666.101-1.395.263-2.227.158-.773.332-1.618.529-2.521 1.48-5.8 3.688-9.646 6.563-11.449.25-.156.514-.232.792-.232.522 0 .884.283.957.34l3.116 2.73c.67.63 1.642 1.311 1.983 1.311.608 0 1.665-.608 1.984-.823l7.618-4.622-8.347 31.12h10.826l10.058-37.646h-12.35l-4.97 3.15c-.219.143-1.378.897-2.108.972l-.112.009c-.183 0-.476-.049-.825-.28l-3.632-2.71c-.041-.032-.915-.76-2.18-1a9.57 9.57 0 0 0-1.616-.141h-.074a14.178 14.178 0 0 0-.467-.007M158.278 21.018l-5.808 21.355c-.758 2.549-1.191 4.833-1.331 7-.214 3.292.407 5.668 1.906 7.264 1.551 1.66 4.11 2.464 7.69 2.464 5.958 0 10.988-2.198 15.073-6.539l1.702-1.8-2.303 7.892h10.66c.594-1.948 2.14-7.596 3.907-14.05l6.442-23.586h-10.79l-5.504 19.15c-.627 1.795-.96 2.404-1.12 2.697-.022.041-.04.07-.05.094l-.042.097c-2.842 5.297-6.857 8.456-10.74 8.456-1.8 0-3.272-.549-4.25-1.6-.857-.91-1.275-2.166-1.188-3.538.12-1.789.665-4.015.976-5.184L169 21.018h-10.72zM316.191 13.96l31.229.054 1.114-4.614-21.41-.055 1.964-7.035h-3.226c-6.59.246-9.907.932-10.429 1.052l-.904 3.122 3.825-.028-2.163 7.504zM278.087 29.214l.753.02-7.9 29.42h11.43l10.108-37.636h-19.244c-6.608 0-14.138.357-19.922 5.41-3.52 3.076-5.733 7.1-7.626 13.9a22.886 22.886 0 0 0-.849 3.525c-.181 1.199-.233 2.677-.248 3.45-.094 3.705.787 6.542 2.634 8.44 2.116 2.168 5.687 3.01 10.423 2.91l6.568-.015 1.86-6.351c-3.78-.053-6.68-1.012-8.404-2.787-1.241-1.269-1.839-2.89-1.79-4.82.018-.658.105-1.382.28-2.211.159-.774.34-1.61.552-2.51.83-3.086 3.022-8.51 8.391-10.39.059-.02.844-.295 1.388-.37l11.596.015zM246.842 13.943l1.845-6.758-10.655-.57c-12.485.521-24.405 1.503-26.72 1.673l-1.49 5.656v.016l37.02-.017zM131.12 50.533a1.805 1.805 0 0 1-3.025.478l-.07-.125a4.48 4.48 0 0 1-.487-.816c-1.11-2.373-6.81-17.348-7.994-20.61h-10.688l9.659 25.952c.198.328 1.025 3.242 4.268 3.242h17.085l10.151-37.636h-16.392l-1.51 5.698h5.439l-6.421 23.743-.014.074zM152.43 13.943l1.844-6.758-10.653-.57c-12.486.521-24.405 1.503-26.722 1.673l-1.49 5.656v.016l37.022-.017zM336.071 24.29c-2.519-2.597-7.608-3.859-15.556-3.859-6.763 0-12.29 1.097-16.435 3.264-3.795 1.987-6.264 4.617-7.457 7.99h12.258c.652-1.733 1.9-3.048 3.838-4.065 1.795-.88 3.857-1.321 6.144-1.321 3.234 0 5.389.597 6.586 1.829.721.741 1.071 1.697 1.039 2.838-.015.517-.078.929-.197 1.256l-.343 1.286c-.031.122-.106.37-.286.977-.108.353-.204.685-.221.749l-.027.354h-1.82l-13.597.027a13.055 13.055 0 0 0-.43-.005c-2.405 0-4.626.301-6.6.893-2.082.622-3.923 1.489-5.47 2.566-1.547 1.087-2.845 2.366-3.85 3.797-1.01 1.43-1.71 2.933-2.068 4.468-.989 3.977-.376 6.903 1.865 8.95 1.99 1.818 4.922 2.359 13.729 2.354h1.686l1.784-5.86c-.038.125-2.303-.017-2.522-.029-.848-.052-1.69-.187-2.458-.569-1.909-.94-2.533-3.014-2.062-5.043.323-1.226 1.134-2.297 2.423-3.203 1.242-.871 2.814-1.31 4.675-1.31h.168l12.728.034-4.347 15.98h11.228l7.146-26.827c.101-.463.172-.848.218-1.186.058-.381.089-.742.09-1.088.066-2.182-.541-3.897-1.859-5.248M383.923 55.75a.803.803 0 0 1-.102.421c-.072.122-.169.226-.287.31a1.46 1.46 0 0 1-.42.19 1.99 1.99 0 0 1-.494.066 1.702 1.702 0 0 1-.51-.067 1.313 1.313 0 0 1-.44-.214 1.098 1.098 0 0 1-.304-.37 1.128 1.128 0 0 1-.112-.525l.416-.004a.75.75 0 0 0 .075.349c.055.1.124.185.212.25a.888.888 0 0 0 .302.15c.114.035.23.051.35.05.128-.001.246-.016.355-.04a.893.893 0 0 0 .275-.11.534.534 0 0 0 .184-.187.527.527 0 0 0 .063-.27.536.536 0 0 0-.07-.274.553.553 0 0 0-.2-.172 1.51 1.51 0 0 0-.315-.112c-.121-.03-.262-.064-.417-.098-.167-.04-.322-.08-.464-.118-.14-.041-.26-.095-.36-.161a.7.7 0 0 1-.234-.265.925.925 0 0 1-.089-.428.772.772 0 0 1 .094-.393.907.907 0 0 1 .259-.29 1.31 1.31 0 0 1 .382-.18c.143-.042.295-.062.454-.064.219-.003.4.022.554.073.148.056.273.129.372.224a.933.933 0 0 1 .217.337c.049.131.079.271.09.42l-.409.005a.895.895 0 0 0-.077-.282.67.67 0 0 0-.157-.223.689.689 0 0 0-.241-.142.914.914 0 0 0-.323-.046c-.11 0-.213.013-.308.036a.786.786 0 0 0-.243.107.546.546 0 0 0-.162.174.458.458 0 0 0-.055.24.592.592 0 0 0 .045.244c.03.06.077.108.145.146.067.037.15.066.255.093.102.027.227.057.372.096.107.026.211.05.318.072.105.024.206.052.305.084.097.03.189.07.272.113a.91.91 0 0 1 .224.17.83.83 0 0 1 .15.255c.033.098.051.22.053.36M387.337 53.75l-1.013 2.86-.376.003-1.087-2.858.038 2.872-.418.007-.043-3.388.607-.007 1.075 2.832 1.014-2.86.613-.007.043 3.39-.418.004z"/>
        </g>
    </g>
</svg>
