<?xml version="1.0" encoding="UTF-8"?>
<svg id="Excel" xmlns="http://www.w3.org/2000/svg" xmlns:xlink="http://www.w3.org/1999/xlink" viewBox="0 0 250 250">
  <defs>
    <style>
      .cls-1 {
        fill: url(#linear-gradient-2);
      }

      .cls-2 {
        fill: #fff;
        stroke: #7236bf;
        stroke-miterlimit: 10;
        stroke-width: 10px;
      }

      .cls-3 {
        fill: url(#linear-gradient-3);
      }

      .cls-4 {
        fill: url(#linear-gradient);
      }

      .cls-5 {
        fill: url(#linear-gradient-4);
      }
    </style>
    <linearGradient id="linear-gradient" x1="-1713.87" y1="517.35" x2="-1713.87" y2="445.74" gradientTransform="translate(3594 1084.68) scale(2 -2)" gradientUnits="userSpaceOnUse">
      <stop offset="0" stop-color="#c391f7"/>
      <stop offset="1" stop-color="#b579f4"/>
    </linearGradient>
    <linearGradient id="linear-gradient-2" x1="-1771.9" y1="456.84" x2="-1713.43" y2="515.31" gradientTransform="translate(3594 1084.68) scale(2 -2)" gradientUnits="userSpaceOnUse">
      <stop offset=".02" stop-color="#742fb6"/>
      <stop offset=".32" stop-color="#702db5"/>
      <stop offset=".36" stop-color="#5d2596"/>
      <stop offset=".38" stop-color="#5d2596"/>
      <stop offset=".48" stop-color="#5d2596"/>
      <stop offset=".48" stop-color="#60279a"/>
      <stop offset=".52" stop-color="#6f2dab"/>
      <stop offset=".56" stop-color="#7932b6"/>
      <stop offset=".61" stop-color="#7e34bd"/>
      <stop offset=".76" stop-color="#8035bf"/>
      <stop offset=".81" stop-color="#7d34bb"/>
      <stop offset=".85" stop-color="#7530ae"/>
      <stop offset=".9" stop-color="#66299a"/>
      <stop offset=".94" stop-color="#52207d"/>
      <stop offset=".96" stop-color="#481b6e"/>
    </linearGradient>
    <linearGradient id="linear-gradient-3" x1="-1772.24" y1="479.21" x2="-1717" y2="470.97" gradientTransform="translate(3594 1084.68) scale(2 -2)" gradientUnits="userSpaceOnUse">
      <stop offset="0" stop-color="#9c55d4"/>
      <stop offset="0" stop-color="#9c55d4"/>
      <stop offset=".34" stop-color="#9751d2"/>
      <stop offset=".74" stop-color="#8847cb"/>
      <stop offset=".85" stop-color="#8343c8"/>
      <stop offset=".89" stop-color="#8042c3"/>
      <stop offset=".94" stop-color="#773db6"/>
      <stop offset=".99" stop-color="#68369f"/>
      <stop offset="1" stop-color="#643499"/>
    </linearGradient>
    <linearGradient id="linear-gradient-4" x1="-1768.57" y1="463.87" x2="-1768.57" y2="497.84" gradientTransform="translate(3594 1084.68) scale(2 -2)" gradientUnits="userSpaceOnUse">
      <stop offset="0" stop-color="#5c1d9c"/>
      <stop offset="1" stop-color="#561b90"/>
    </linearGradient>
  </defs>
  <circle class="cls-2" cx="122.38" cy="124.15" r="109.3"/>
  <path class="cls-4" d="m188.48,74.9v92.66c0,4.03-2.29,7.7-5.91,9.46-8.24,4.01-22.43,10.93-24.74,11.98-3.28,1.5-5.35,2.48-7.93,2.48s-4.29-1.68-5.47-2.93c-1.19-1.26,8.96-35.67,8.96-35.67V58.93s-11.17-2.34-9.05-4.69c2.12-2.35,3.89-3.16,6.09-3.16,2.54,0,4.6,1.13,6.92,2.25,1.64.79,16.61,7.97,25.18,12.08,3.65,1.75,5.96,5.44,5.96,9.49Z"/>
  <path class="cls-1" d="m48.1,149.37c0,6.77.92,7.77,7.49,10.63,5.11,2.22,7.15,3.41,8.51,3.41,1.65,0,3.19-1.13,4.66-2.33s84.63-69.53,84.63-69.53v-35.02c0-4.2-5.87-5.88-8.66-2.73,0,0-87,96.62-89.61,99.12s-.82-6.64-7.02-3.55Z"/>
  <path class="cls-3" d="m50.27,85.07c1.11-.53,10.3-4.64,11.43-5.13,1.33-.58,1.8-.77,2.78-.77,1.08,0,1.82.41,3.51,1.8,2.37,1.94,85.39,70.08,85.39,70.08v34.25c0,5.88-6.12,6.48-9.57,2.6-2.45-2.75-87.33-96.68-87.33-96.68,0,0-8.38,4.24-8.38.54,0-4.99.97-6.11,2.18-6.69Z"/>
  <path class="cls-5" d="m65.64,101.37v40.05s-9.58,10.53-11.72,12.84c-1.9,2.06-5.83,1.41-5.83-4.37v-58.68c0-4.39,3.97-4.84,7.36-1.13.61.67,10.18,11.29,10.18,11.29Z"/>
</svg>