<?xml version="1.0" encoding="UTF-8"?>
<svg id="Excel" xmlns="http://www.w3.org/2000/svg" xmlns:xlink="http://www.w3.org/1999/xlink" viewBox="0 0 250 250">
  <defs>
    <style>
      .cls-1 {
        fill: url(#linear-gradient-2);
      }

      .cls-2, .cls-3 {
        fill: #fff;
      }

      .cls-4 {
        fill: url(#linear-gradient-5);
        isolation: isolate;
        opacity: .7;
      }

      .cls-3 {
        stroke: #00a79d;
        stroke-miterlimit: 10;
        stroke-width: 10px;
      }

      .cls-5 {
        mask: url(#mask);
      }

      .cls-6 {
        fill: url(#linear-gradient-3);
      }

      .cls-7 {
        fill: url(#linear-gradient);
      }

      .cls-8 {
        fill: url(#linear-gradient-4);
      }
    </style>
    <mask id="mask" x="61.05" y="58.63" width="126.09" height="132.07" maskUnits="userSpaceOnUse">
      <g id="mask0_84_430" data-name="mask0 84 430">
        <path class="cls-2" d="m108.49,58.63h56.99c15.95,0,26.37,16.65,19.52,30.96l1.06-2.11-19.81,39.62c-.06.12-.11.24-.17.35l-3.09,6.18,3.09-6.19c-3.66,7.33-11.15,11.96-19.35,11.96h-34.22l-24.23,48.46c-1.9,3.8-7.33,3.8-9.23,0l-16.92-33.85c-1.54-3.09-1.34-6.42.05-9.13l18.64-37.28c1.75-3.5,5.32-5.7,9.23-5.7h71.42c-3.78-3.53-8.88-5.77-14.73-5.77h-51.84c-3.83,0-6.33-4.04-4.61-7.47l13.59-27.18c.87-1.75,2.66-2.85,4.61-2.85Z"/>
      </g>
    </mask>
    <linearGradient id="linear-gradient" x1="84.25" y1="115.23" x2="98.67" y2="60.43" gradientTransform="translate(0 250.68) scale(1 -1)" gradientUnits="userSpaceOnUse">
      <stop offset="0" stop-color="#159455"/>
      <stop offset="1" stop-color="#3fbda9"/>
    </linearGradient>
    <linearGradient id="linear-gradient-2" x1="92.42" y1="187.51" x2="176.09" y2="150.31" gradientTransform="translate(0 250.68) scale(1 -1)" gradientUnits="userSpaceOnUse">
      <stop offset="0" stop-color="#23a794"/>
      <stop offset=".57" stop-color="#007a84"/>
      <stop offset="1" stop-color="#005158"/>
    </linearGradient>
    <linearGradient id="linear-gradient-3" x1="151.33" y1="132.79" x2="136.19" y2="172.45" gradientTransform="translate(0 250.68) scale(1 -1)" gradientUnits="userSpaceOnUse">
      <stop offset="0" stop-color="#004a8b"/>
      <stop offset=".41" stop-color="#105da8" stop-opacity=".5"/>
      <stop offset="1" stop-color="#2170c6" stop-opacity="0"/>
    </linearGradient>
    <linearGradient id="linear-gradient-4" x1="85.88" y1="153.3" x2="161.6" y2="115.8" gradientTransform="translate(0 250.68) scale(1 -1)" gradientUnits="userSpaceOnUse">
      <stop offset="0" stop-color="#7fd9a2"/>
      <stop offset=".2" stop-color="#47bf79"/>
      <stop offset=".71" stop-color="#009280"/>
      <stop offset="1" stop-color="#007a84"/>
    </linearGradient>
    <linearGradient id="linear-gradient-5" x1="85.32" y1="151.97" x2="102.63" y2="143.32" gradientTransform="translate(0 250.68) scale(1 -1)" gradientUnits="userSpaceOnUse">
      <stop offset="0" stop-color="#a8e47c" stop-opacity=".86"/>
      <stop offset=".37" stop-color="#87d152" stop-opacity=".2"/>
      <stop offset="1" stop-color="#58be5a" stop-opacity="0"/>
    </linearGradient>
  </defs>
  <circle class="cls-3" cx="125" cy="125" r="109.3"/>
  <g class="cls-5">
    <g>
      <path class="cls-7" d="m71.16,139.4h41.35l-24.23,48.46c-1.9,3.8-7.33,3.8-9.23,0l-16.92-33.85c-3.36-6.71,1.52-14.61,9.03-14.61Z"/>
      <path class="cls-1" d="m108.49,58.63h56.99c16.08,0,26.54,16.92,19.35,31.31l-18.58,37.15c-.06.12-.11.24-.17.35l-3.09,6.18,3.27-6.53c6.86-14.31-3.56-30.96-19.52-30.96h-51.84c-3.83,0-6.33-4.04-4.61-7.47l13.59-27.18c.87-1.75,2.66-2.85,4.61-2.85Z"/>
      <path class="cls-6" d="m108.49,58.63h56.99c16.08,0,26.54,16.92,19.35,31.31l-18.62,37.23c-.04.09-.09.18-.13.27l-1.65,3.3,1.78-3.57c6.94-14.32-3.49-31.05-19.48-31.05h-51.84c-3.83,0-6.33-4.04-4.61-7.47l13.59-27.18c.87-1.75,2.66-2.85,4.61-2.85Z"/>
      <path d="m146.73,139.97h-75.44c-3.91,0-7.48,2.21-9.23,5.7l18.75-37.49c1.75-3.5,5.32-5.7,9.23-5.7h75.43c8.18,0,15.67-4.62,19.33-11.93l1.25-2.49-19.98,39.96c-3.66,7.33-11.15,11.96-19.35,11.96Z"/>
      <path d="m146.73,142.28h-75.44c-3.91,0-7.48,2.21-9.23,5.7l18.75-37.49c1.75-3.5,5.32-5.7,9.23-5.7h75.43c8.18,0,15.67-4.62,19.33-11.93l1.25-2.49-19.98,39.96c-3.66,7.33-11.15,11.96-19.35,11.96Z"/>
      <path class="cls-8" d="m146.73,139.4h-75.44c-3.91,0-7.48,2.21-9.23,5.7l18.75-37.49c1.75-3.5,5.32-5.7,9.23-5.7h75.43c8.18,0,15.67-4.62,19.33-11.93l1.25-2.49-19.98,39.96c-3.66,7.33-11.15,11.96-19.35,11.96Z"/>
      <path class="cls-4" d="m146.69,139.4h-75.34c-3.91,0-7.48,2.21-9.23,5.7l18.75-37.5c1.75-3.5,5.32-5.7,9.23-5.7h75.77c7.93,0,15.18-4.46,18.75-11.54l-18.59,37.09c-3.67,7.32-11.15,11.94-19.34,11.94Z"/>
    </g>
  </g>
</svg>