<?xml version="1.0" encoding="UTF-8"?>
<svg id="Excel" xmlns="http://www.w3.org/2000/svg" xmlns:xlink="http://www.w3.org/1999/xlink" viewBox="0 0 250 250">
  <defs>
    <style>
      .cls-1 {
        fill: #185c37;
      }

      .cls-2, .cls-3 {
        fill: #fff;
      }

      .cls-3 {
        stroke: #70b27e;
        stroke-miterlimit: 10;
        stroke-width: 10px;
      }

      .cls-4 {
        opacity: .2;
      }

      .cls-4, .cls-5 {
        isolation: isolate;
      }

      .cls-6 {
        fill: #33c481;
      }

      .cls-7 {
        fill: none;
      }

      .cls-5 {
        opacity: .1;
      }

      .cls-8 {
        fill: #21a366;
      }

      .cls-9 {
        fill: url(#linear-gradient);
      }
    </style>
    <linearGradient id="linear-gradient" x1="71.62" y1="166.88" x2="116.51" y2="89.12" gradientTransform="translate(0 252) scale(1 -1)" gradientUnits="userSpaceOnUse">
      <stop offset="0" stop-color="#18884f"/>
      <stop offset=".5" stop-color="#117e43"/>
      <stop offset="1" stop-color="#0b6631"/>
    </linearGradient>
  </defs>
  <circle class="cls-3" cx="125" cy="124" r="109.3"/>
  <path class="cls-1" d="m188.4,186.54h-76.11c-3.16,0-5.72-2.56-5.72-5.72h0v-34.93l31.27-15.63,34.14,15.63h16.43c3.16,0,5.72,2.56,5.72,5.72h0v29.21c0,3.16-2.56,5.72-5.72,5.72Z"/>
  <path class="cls-6" d="m153.48,102.11l-34.4,21.89-40.65-21.89v-34.93c0-3.16,2.56-5.72,5.72-5.72h63.6c3.16,0,5.72,2.56,5.72,5.72v34.93Z"/>
  <path class="cls-8" d="m78.43,102.11h87.87c3.28,0,5.94,2.66,5.94,5.94h0v37.84h-87.87c-3.28,0-5.94-2.66-5.94-5.94v-37.84h0Z"/>
  <path class="cls-5" d="m128.99,164.65c.74,0,1.47-.15,2.16-.44,2.14-.88,3.55-2.97,3.56-5.28v-66.73c-.02-3.15-2.57-5.7-5.72-5.72h-50.56v53.47c0,3.28,2.66,5.94,5.94,5.94h22.2v18.76h22.42Z"/>
  <path class="cls-4" d="m106.57,145.89v21.89h19.29c2.32-.02,4.4-1.42,5.28-3.56.29-.68.44-1.42.44-2.16v-66.73c-.02-3.15-2.57-5.7-5.72-5.72h-47.44v50.34c0,3.28,2.66,5.94,5.94,5.94h22.2Z"/>
  <path class="cls-4" d="m125.86,161.52c3.15-.02,5.7-2.57,5.72-5.72v-60.48c-.02-3.15-2.57-5.7-5.72-5.72h-47.44v50.34c0,3.28,2.66,5.94,5.94,5.94h22.2v15.63h19.29Z"/>
  <path class="cls-4" d="m122.74,161.52c3.15-.02,5.7-2.57,5.72-5.72v-60.48c-.02-3.15-2.57-5.7-5.72-5.72h-44.31v50.34c0,3.28,2.66,5.94,5.94,5.94h22.2v15.63h16.17Z"/>
  <rect class="cls-9" x="59.67" y="89.6" width="68.79" height="68.79" rx="5.73" ry="5.73"/>
  <path class="cls-2" d="m94.69,104.89c3.73-.25,7.43.83,10.44,3.06,2.51,2.24,3.85,5.5,3.63,8.86.04,2.33-.58,4.63-1.79,6.62-1.23,1.96-2.99,3.52-5.09,4.5-2.39,1.11-5.01,1.66-7.65,1.61h-7.25v13.48h-7.43v-38.12h15.14Zm-7.72,18.82h6.39c2.03.15,4.04-.45,5.65-1.69,1.33-1.28,2.03-3.09,1.91-4.93,0-4.2-2.44-6.3-7.32-6.3h-6.63v12.92Z"/>
  <rect class="cls-7" x="53.41" y="48.95" width="150.1" height="150.1"/>
</svg>