<?xml version="1.0" encoding="utf-8"?>
<!-- Generator: Adobe Illustrator 27.4.1, SVG Export Plug-In . SVG Version: 6.00 Build 0)  -->
<svg version="1.1" id="Layer_1" xmlns="http://www.w3.org/2000/svg" xmlns:xlink="http://www.w3.org/1999/xlink" x="0px" y="0px"
	 viewBox="0 0 48 48" style="enable-background:new 0 0 48 48;" xml:space="preserve">
<style type="text/css">
	.st0{fill:url(#SVGID_1_);}
	.st1{fill:url(#SVGID_00000131333470694777604830000000082135000350273185_);}
	.st2{fill:url(#SVGID_00000139987081652824509000000004339859994244908709_);}
	.st3{fill:url(#SVGID_00000034794567099977836870000017584095365395773879_);}
	.st4{fill:url(#SVGID_00000158745509125358567350000004578985444293703297_);}
	.st5{fill:url(#SVGID_00000108275605849539944050000001304641956178893705_);}
	.st6{fill:url(#SVGID_00000063598729534705683280000010933257721839783613_);}
	.st7{fill:url(#SVGID_00000163044643655285546000000015544930167149424545_);}
</style>
<radialGradient id="SVGID_1_" cx="-392.4994" cy="330.293" r="1" gradientTransform="matrix(-11.7002 31.247 54.5012 20.4075 -22576.252 5534.6089)" gradientUnits="userSpaceOnUse">
	<stop  offset="6.441000e-02" style="stop-color:#AE7FE2"/>
	<stop  offset="1" style="stop-color:#0078D4"/>
</radialGradient>
<path class="st0" d="M20.1,3l-0.2,0.1c-0.4,0.2-0.7,0.5-1,0.7l0.6-0.5H25l1,7.6l-5,5l-5,3.5v4c0,2.8,1.5,5.4,3.9,6.8l5.3,3.2L14,40
	h-2.1l-4-2.4c-2.4-1.4-3.9-4-3.9-6.8V17.3c0-2.8,1.5-5.4,3.9-6.8l12-7.3C19.9,3.1,20,3.1,20.1,3z"/>
<linearGradient id="SVGID_00000134939891876379731160000007585869228826608008_" gradientUnits="userSpaceOnUse" x1="23.7967" y1="15.0413" x2="19.0361" y2="23.2751" gradientTransform="matrix(1 0 0 -1 0 49.2756)">
	<stop  offset="0" style="stop-color:#114A8B"/>
	<stop  offset="1" style="stop-color:#0078D4;stop-opacity:0"/>
</linearGradient>
<path style="fill:url(#SVGID_00000134939891876379731160000007585869228826608008_);" d="M20.1,3l-0.2,0.1c-0.4,0.2-0.7,0.5-1,0.7
	l0.6-0.5H25l1,7.6l-5,5l-5,3.5v4c0,2.8,1.5,5.4,3.9,6.8l5.3,3.2L14,40h-2.1l-4-2.4c-2.4-1.4-3.9-4-3.9-6.8V17.3
	c0-2.8,1.5-5.4,3.9-6.8l12-7.3C19.9,3.1,20,3.1,20.1,3z"/>
<radialGradient id="SVGID_00000105403678283538114820000015762146855622067114_" cx="-384.6617" cy="306.2977" r="1" gradientTransform="matrix(30.7198 -4.5183 -2.9847 -20.2925 12741.3477 4513.8667)" gradientUnits="userSpaceOnUse">
	<stop  offset="0.1339" style="stop-color:#D59DFF"/>
	<stop  offset="1" style="stop-color:#5E438F"/>
</radialGradient>
<path style="fill:url(#SVGID_00000105403678283538114820000015762146855622067114_);" d="M32,19v4.5c0,2.8-1.5,5.4-3.9,6.8l-12,7.3
	c-2.5,1.5-5.5,1.5-8,0.2l11.7,7.1c2.5,1.5,5.7,1.5,8.3,0l12-7.3c2.4-1.4,3.9-4,3.9-6.8v-3.2L43,26L32,19z"/>
<linearGradient id="SVGID_00000134947217306979691810000006626233506442510753_" gradientUnits="userSpaceOnUse" x1="35.4903" y1="27.2907" x2="30.3889" y2="19.9759" gradientTransform="matrix(1 0 0 -1 0 49.2756)">
	<stop  offset="0" style="stop-color:#493474"/>
	<stop  offset="1" style="stop-color:#8C66BA;stop-opacity:0"/>
</linearGradient>
<path style="fill:url(#SVGID_00000134947217306979691810000006626233506442510753_);" d="M32,19v4.5c0,2.8-1.5,5.4-3.9,6.8l-12,7.3
	c-2.5,1.5-5.5,1.5-8,0.2l11.7,7.1c2.5,1.5,5.7,1.5,8.3,0l12-7.3c2.4-1.4,3.9-4,3.9-6.8v-3.2L43,26L32,19z"/>
<radialGradient id="SVGID_00000015338605634757460430000010308132078300731268_" cx="-414.0939" cy="326.2631" r="1" gradientTransform="matrix(-24.1583 -6.1256 -10.3118 40.6682 -6598.3936 -15778.5947)" gradientUnits="userSpaceOnUse">
	<stop  offset="5.849960e-02" style="stop-color:#50E6FF"/>
	<stop  offset="1" style="stop-color:#436DCD"/>
</radialGradient>
<path style="fill:url(#SVGID_00000015338605634757460430000010308132078300731268_);" d="M40.1,10.4l-12-7.3c-2.5-1.5-5.5-1.5-8-0.1
	l-0.2,0.1C17.5,4.6,16,7.2,16,10v9.5l3.9-2.3c2.5-1.5,5.7-1.5,8.3,0l12,7.3c2.3,1.4,3.8,3.9,3.9,6.6c0-0.1,0-0.2,0-0.3V17.3
	C44,14.5,42.5,11.9,40.1,10.4z"/>
<linearGradient id="SVGID_00000183928842193837922360000002891359548826784955_" gradientUnits="userSpaceOnUse" x1="16.9758" y1="32.7753" x2="24.4868" y2="32.7753" gradientTransform="matrix(1 0 0 -1 0 49.2756)">
	<stop  offset="0" style="stop-color:#2D3F80"/>
	<stop  offset="1" style="stop-color:#436DCD;stop-opacity:0"/>
</linearGradient>
<path style="fill:url(#SVGID_00000183928842193837922360000002891359548826784955_);" d="M40.1,10.4l-12-7.3c-2.5-1.5-5.5-1.5-8-0.1
	l-0.2,0.1C17.5,4.6,16,7.2,16,10v9.5l3.9-2.3c2.5-1.5,5.7-1.5,8.3,0l12,7.3c2.3,1.4,3.8,3.9,3.9,6.6c0-0.1,0-0.2,0-0.3V17.3
	C44,14.5,42.5,11.9,40.1,10.4z"/>
<radialGradient id="SVGID_00000128448558058375844060000008133100764600523937_" cx="-412.6972" cy="326.584" r="0" gradientTransform="matrix(-24.1583 -6.1256 -10.3118 40.6682 -6598.3936 -15778.5947)" gradientUnits="userSpaceOnUse">
	<stop  offset="5.849960e-02" style="stop-color:#50E6FF"/>
	<stop  offset="1" style="stop-color:#436DCD"/>
</radialGradient>
<path style="fill:url(#SVGID_00000128448558058375844060000008133100764600523937_);" d="M4,31L4,31z"/>
<linearGradient id="SVGID_00000173868539339546963870000011278529112950390199_" gradientUnits="userSpaceOnUse" x1="4.0043" y1="18.2772" x2="4.0043" y2="18.2772" gradientTransform="matrix(1 0 0 -1 0 49.2756)">
	<stop  offset="0" style="stop-color:#2D3F80"/>
	<stop  offset="1" style="stop-color:#436DCD;stop-opacity:0"/>
</linearGradient>
<path style="fill:url(#SVGID_00000173868539339546963870000011278529112950390199_);" d="M4,31L4,31z"/>
</svg>
