<?xml version="1.0" encoding="UTF-8"?>
<svg id="Excel" xmlns="http://www.w3.org/2000/svg" xmlns:xlink="http://www.w3.org/1999/xlink" viewBox="0 0 250 250">
  <defs>
    <style>
      .cls-1 {
        fill: url(#linear-gradient-2);
      }

      .cls-2, .cls-3 {
        fill: #fff;
      }

      .cls-3 {
        stroke: url(#linear-gradient);
        stroke-miterlimit: 10;
        stroke-width: 10px;
      }

      .cls-4 {
        clip-path: url(#clippath-2);
      }

      .cls-5 {
        clip-path: url(#clippath-1);
      }

      .cls-6 {
        clip-path: url(#clippath);
      }

      .cls-7 {
        fill: none;
      }

      .cls-8 {
        mask: url(#mask);
      }

      .cls-9 {
        fill: url(#linear-gradient-3);
      }

      .cls-10 {
        fill: url(#linear-gradient-4);
      }
    </style>
    <linearGradient id="linear-gradient" x1="10.7" y1="125" x2="239.3" y2="125" gradientUnits="userSpaceOnUse">
      <stop offset="0" stop-color="#e48cc7"/>
      <stop offset="1" stop-color="#d467b9"/>
    </linearGradient>
    <clipPath id="clippath">
      <rect class="cls-7" x="55.19" y="54.19" width="139.62" height="139.62"/>
    </clipPath>
    <clipPath id="clippath-1">
      <rect class="cls-7" x="55.19" y="54.19" width="139.62" height="139.62"/>
    </clipPath>
    <clipPath id="clippath-2">
      <rect class="cls-7" x="55.19" y="54.19" width="139.62" height="139.62"/>
    </clipPath>
    <mask id="mask" x="52.28" y="54.19" width="145.44" height="142.53" maskUnits="userSpaceOnUse">
      <g id="mask0">
        <path class="cls-2" d="m57.31,118.25c-2.88,3.29-2.88,8.2,0,11.49l51.68,59.06c2.32,2.65,6.44,2.65,8.76,0l5.56-6.36,6.13,6.69c2.31,2.52,6.27,2.52,8.58,0l54.3-59.23c3.06-3.34,3.06-8.46,0-11.79l-54.3-59.23c-2.31-2.52-6.27-2.52-8.58,0l-6.13,6.69-5.56-6.36c-2.32-2.65-6.44-2.65-8.76,0l-51.68,59.06Z"/>
      </g>
    </mask>
    <linearGradient id="linear-gradient-2" x1="144.27" y1="51.07" x2="62.83" y2="250.32" gradientTransform="translate(0 250.68) scale(1 -1)" gradientUnits="userSpaceOnUse">
      <stop offset="0" stop-color="#742774"/>
      <stop offset="1" stop-color="#bb35a4"/>
    </linearGradient>
    <linearGradient id="linear-gradient-3" x1="107.34" y1="199.18" x2="174.24" y2="59.56" gradientTransform="translate(0 250.68) scale(1 -1)" xlink:href="#linear-gradient"/>
    <linearGradient id="linear-gradient-4" x1="156.84" y1="158.05" x2="177.2" y2="95.51" gradientTransform="translate(0 250.68) scale(1 -1)" gradientUnits="userSpaceOnUse">
      <stop offset="0" stop-color="#e9a1cb"/>
      <stop offset="1" stop-color="#e48cc7"/>
    </linearGradient>
  </defs>
  <circle class="cls-3" cx="125" cy="125" r="109.3"/>
  <g class="cls-6">
    <g class="cls-5">
      <g class="cls-4">
        <g class="cls-8">
          <g>
            <path class="cls-1" d="m113.37,193.81l-61.08-69.81,61.08-69.81,61.08,69.81-61.08,69.81Z"/>
            <path d="m133.72,57.1l63.99,69.81-63.99,69.81-28.39-30.97c-2.04-2.22-2.04-5.64,0-7.86l24.79-27.04c2.04-2.22,2.04-5.64,0-7.86l-24.79-27.04c-2.04-2.22-2.04-5.64,0-7.86l28.39-30.97Z"/>
            <path d="m133.72,54.74l63.99,69.81-63.99,69.81-28.39-30.97c-2.04-2.22-2.04-5.64,0-7.86l24.79-27.04c2.04-2.22,2.04-5.64,0-7.86l-24.79-27.04c-2.04-2.22-2.04-5.64,0-7.86l28.39-30.97Z"/>
            <path class="cls-9" d="m133.72,54.19l63.99,69.81-63.99,69.81-28.39-30.97c-2.04-2.22-2.04-5.64,0-7.86l24.79-27.04c2.04-2.22,2.04-5.64,0-7.86l-24.79-27.04c-2.04-2.22-2.04-5.64,0-7.86l28.39-30.97Z"/>
            <path class="cls-10" d="m161.43,93.77c2.31-2.52,6.27-2.52,8.58,0l27.71,30.23-27.71,30.23c-2.31,2.52-6.27,2.52-8.58,0l-22.3-24.33c-3.06-3.34-3.06-8.46,0-11.79l22.3-24.33Z"/>
          </g>
        </g>
      </g>
    </g>
  </g>
</svg>