<?xml version="1.0" encoding="UTF-8"?>
<svg id="Excel" xmlns="http://www.w3.org/2000/svg" xmlns:xlink="http://www.w3.org/1999/xlink" viewBox="0 0 250 250">
  <defs>
    <style>
      .cls-1 {
        fill: url(#linear-gradient-2);
      }

      .cls-2 {
        fill: #fff;
        stroke: #be1e2d;
        stroke-miterlimit: 10;
        stroke-width: 10px;
      }

      .cls-3 {
        fill: url(#radial-gradient);
      }

      .cls-4 {
        fill: url(#linear-gradient);
      }
    </style>
    <linearGradient id="linear-gradient" x1="-3531.13" y1="-9579.57" x2="-3439.45" y2="-9633.74" gradientTransform="translate(501.1 1322.98) scale(.12)" gradientUnits="userSpaceOnUse">
      <stop offset="0" stop-color="#909ca9"/>
      <stop offset="1" stop-color="#ededee"/>
    </linearGradient>
    <linearGradient id="linear-gradient-2" x1="-3529.08" y1="-10600.58" x2="-3455.31" y2="-10600.58" gradientTransform="translate(501.1 1322.98) scale(.12)" gradientUnits="userSpaceOnUse">
      <stop offset="0" stop-color="#939fab"/>
      <stop offset="1" stop-color="#dcdee1"/>
    </linearGradient>
    <radialGradient id="radial-gradient" cx="-12126.11" cy="-5532.41" fx="-12126.11" fy="-5532.41" r="97.94" gradientTransform="translate(-1064.74 -1364.9) rotate(-171.46) scale(.12 .23) skewX(-.19)" gradientUnits="userSpaceOnUse">
      <stop offset="0" stop-color="#ee352c"/>
      <stop offset="1" stop-color="#a91d22"/>
    </radialGradient>
  </defs>
  <circle class="cls-2" cx="125" cy="125" r="109.3"/>
  <g>
    <path class="cls-4" d="m145.88,120.24l-30.11,9.83-26.19,11.56-7.33,1.93c-1.87,1.78-3.82,3.57-5.94,5.39-2.32,2-4.48,3.82-6.14,5.14-1.84,1.46-4.57,4.19-5.96,5.92-2.07,2.59-3.71,5.35-4.41,7.46-1.25,3.82-.64,7.69,1.78,11.26,3.09,4.55,9.26,9.19,16.45,12.36,3.66,1.62,9.83,3.69,14.47,4.85,7.71,1.96,22.64,4.07,30.86,4.39,1.66.07,3.89.07,3.98,0,.18-.11,1.46-2.55,2.94-5.57,5.05-10.31,8.69-19.98,10.67-28.24,1.18-5.01,2.12-11.67,2.73-19.57.16-2.21.23-9.6.09-12.11-.2-4.1-.57-7.42-1.14-10.67-.09-.48-.11-.91-.07-.93.09-.07.36-.16,4.07-1.23l-.75-1.77h0s0,0,0,0h0Zm-6.87,4.03c.27,0,1,6.99,1.18,11.4.05.93.02,1.55-.02,1.55-.18,0-3.85-2.16-6.46-3.8-2.28-1.43-6.6-4.3-7.28-4.85-.23-.16-.21-.18,1.66-.82,3.16-1.07,10.67-3.48,10.92-3.48Zm-15.34,5.05c.2,0,.73.3,1.98,1.07,4.69,2.94,11.06,6.49,13.79,7.67.84.36.93.23-1,1.55-4.14,2.82-9.31,5.6-15.63,8.4-1.11.5-2.05.89-2.07.89-.05,0,.09-.57.27-1.25,1.52-5.67,2.39-11.4,2.44-16q.02-2.28.23-2.34s-.02.02,0,.02h0Zm-3.16,1.21c.14.14.05,5.23-.14,6.62-.41,3.32-1.05,6.42-2.09,9.9-.25.84-.48,1.55-.52,1.59-.09.11-3.21-2.94-4.23-4.12-1.78-2.05-3.16-4.1-4.19-6.1-.52-1.02-1.34-3.03-1.27-3.09.36-.25,12.36-4.89,12.45-4.8h0Zm-14.88,5.85s.05,0,.07.02c.05.05.2.41.34.82.73,1.98,2.37,4.89,3.78,6.76,1.55,2.05,3.57,4.23,5.26,5.67.55.46,1.05.89,1.11.96.14.14.18.11-3.53,1.52-4.3,1.64-8.99,3.28-14.36,5.01-1.28.41-2.56.83-3.85,1.25-.21.07-.14-.05.45-.98,2.66-4.16,6.71-12.33,8.99-18.11.39-1,.77-2,.84-2.23.09-.32.2-.43.5-.59.16-.05.32-.09.39-.09h0Zm-4.55,1.89c.07.05-1.09,2.48-2.23,4.71-2.21,4.3-4.62,8.53-7.85,13.68-.55.89-1.07,1.71-1.14,1.8-.11.16-.16.11-.52-.59-.77-1.52-1.41-3.48-1.75-5.28-.34-1.78-.27-4.87.11-6.78.3-1.41.27-1.39.96-1.73,2.91-1.48,12.33-5.89,12.42-5.8h0Zm39.25,1.59v.96c0,5.07-.55,12.04-1.34,17.11-.14.89-.25,1.62-.27,1.64,0,0-.66-.18-1.43-.41-3.41-1.07-7.12-2.64-10.47-4.48-2.21-1.21-5.42-3.19-5.32-3.28.02-.02.98-.52,2.09-1.11,4.46-2.32,8.74-4.82,12.45-7.3,1.39-.93,3.48-2.43,3.94-2.84l.36-.27h0Zm-56.43,6.74c.09,0,.07.18-.07,1-.09.59-.2,1.68-.25,2.43-.18,3.32.36,5.78,2,9.15.46.93.82,1.71.8,1.73-.16.14-15.22,4.55-19.96,5.85-1.41.39-2.64.73-2.73.75-.16.05-.18.02-.11-.36.52-3.34,3.07-7.71,6.62-11.4,2.37-2.46,4.26-3.89,7.49-5.73,2.32-1.32,5.89-3.3,6.17-3.39,0-.02.02-.02.05-.02h0Zm35.5,6.35s.57.27,1.23.66c4.87,2.82,11.65,5.44,17.43,6.78l.52.11-.73.41c-3.03,1.68-12.97,5.83-23.14,9.63-1.48.55-2.94,1.09-3.21,1.21-.27.11-.52.18-.52.16s.41-.82.93-1.8c2.84-5.32,5.71-11.81,7.17-16.32.18-.43.3-.82.32-.84h0Zm-3.62,1.18s-.16.5-.39,1.05c-1.98,4.8-4.57,10.04-7.9,15.91-.84,1.5-1.55,2.71-1.57,2.71s-.71-.41-1.52-.91c-4.82-2.96-9.1-6.6-11.9-10.13l-.41-.5,2.07-.57c7.42-2.02,13.72-4.21,19.98-6.89.89-.36,1.62-.66,1.64-.66Zm22.48,7.85s.02.02,0,0c.02.52-1.14,5.21-2.09,8.6-.8,2.84-1.48,5.07-2.73,9.01-.55,1.73-1.02,3.16-1.05,3.16s-.16-.02-.3-.07c-6.76-1.23-12.81-2.94-18.5-5.21-1.59-.64-3.87-1.66-4-1.78-.05-.05,1.32-.68,3.05-1.43,10.35-4.53,21.09-9.67,24.78-11.88.43-.27.77-.41.84-.41h0Zm-51.9,1.78s-2.84,4.21-6.9,9.88c-1.41,1.98-3.05,4.3-3.66,5.17-.61.86-1.55,2.23-2.07,3.05l-.96,1.48-1.02-.86c-1.21-1-3.3-3.14-4.23-4.32-1.96-2.43-3.28-5.01-3.8-7.35-.25-1.09-.25-1.64-.02-1.71.34-.09,6.42-1.52,12.11-2.84,3.16-.73,6.83-1.59,8.15-1.91,1.32-.32,2.39-.57,2.41-.57h0Zm2.91,1.12l.73.82c3.28,3.66,6.62,6.37,10.67,8.74.73.41,1.27.77,1.23.8-.16.11-14.06,5.05-20.5,7.28-3.62,1.27-6.6,2.3-6.62,2.3s-.23-.14-.46-.3l-.41-.3.66-.96c2.14-3.09,4.82-6.49,10.67-13.54l4.03-4.85h0Zm18.16,12.99s1.02.34,2.25.8c2.96,1.11,5.3,1.82,8.44,2.62,3.87.98,9.47,1.93,12.77,2.21.5.05.77.09.68.16-.16.09-3.5,1.21-5.96,1.98-3.91,1.23-15.86,4.76-25.6,7.55-1.8.52-3.35.96-3.44.98-.23.05-.98-.16-.98-.25,0-.05.55-.75,1.21-1.52,3.28-3.91,6.53-8.28,9.24-12.42.75-1.14,1.39-2.07,1.39-2.09h0Zm-4.01.11s-1.59,2.62-4.41,7.08c-1.21,1.89-2.55,4.03-3.03,4.78-.46.73-1.14,1.87-1.52,2.5l-.66,1.16-.34-.09c-.82-.23-6.58-2.25-8.1-2.87-1.89-.75-3.85-1.66-5.3-2.43-1.82-.98-4.1-2.44-3.91-2.48.05-.02,3.16-.86,6.92-1.89,9.97-2.71,15.5-4.28,19.11-5.42.66-.2,1.23-.36,1.25-.34h0Zm28.33,6.64h.02c.09.23-3.6,10.47-4.94,13.7-.3.73-.41.91-.57.89-.39-.02-5.73-.77-8.99-1.25-5.67-.86-15.18-2.53-17.57-3.07l-.55-.11,3.39-.77c7.28-1.64,10.79-2.53,14.34-3.62,4.48-1.37,8.92-3.07,13.4-5.17.71-.32,1.3-.57,1.46-.59h0Z"/>
    <path class="cls-1" d="m114.84,50.06c-.5-.07-8.58,2.84-13.79,4.96-7.03,2.87-12.49,5.6-15.86,7.96-1.25.89-2.82,2.46-3.07,3.07-.09.23-.14.5-.14.77l3.05,2.89,7.26,2.32,17.27,3.09,19.75,3.39.2-1.71c-.07,0-.11-.02-.18-.02l-2.59-.41-.52-.93c-2.69-4.73-5.64-10.6-7.37-14.56-1.34-3.07-2.62-6.62-3.32-9.17-.39-1.55-.43-1.64-.68-1.66h0s0,0,0,0h0Zm-.36,1.16h.02s.11.66.2,1.41c.39,3.19,1.09,6.26,2.21,9.58.84,2.5.84,2.37-.14,2.07-2.32-.64-12.72-2.43-20.25-3.48-1.21-.16-2.23-.32-2.23-.34-.09-.09,5.44-2.98,7.87-4.12,3.12-1.43,11.67-5.01,12.31-5.12h0Zm-21.94,10.19l.89.3c4.82,1.64,16.95,3.96,23.64,4.51.75.07,1.39.14,1.41.14.02.02-.61.36-1.43.75-3.23,1.62-6.78,3.6-9.24,5.12-.73.45-1.39.82-1.48.82s-.57-.09-1.07-.16l-.91-.14-2.28-2.23c-4-3.89-7.15-6.89-8.35-8.03l-1.18-1.07Zm-.91.71l3.21,4.01c1.75,2.21,3.53,4.37,3.91,4.85.39.48.71.87.68.89-.09.07-4.64-.82-7.05-1.37-2.48-.57-3.5-.84-5.03-1.32l-1.25-.41v-.32c.02-1.52,1.96-3.8,5.23-6.12l.3-.21h0Zm27.26,5.46c.09,0,.2.2.48.82.77,1.71,3.19,6.3,3.78,7.19.18.3.5.32-2.71-.2-7.71-1.25-10.19-1.66-10.19-1.71,0-.02.23-.18.52-.34,2.39-1.32,4.8-3,6.94-4.8.52-.43,1-.84,1.09-.91.02-.05.07-.07.09-.05h0Z"/>
    <path class="cls-3" d="m82.28,65.74s-.5.8-.02,1.98c.3.73,1.16,1.62,2.14,2.53,0,0,10.13,9.88,11.35,11.29,5.6,6.46,8.03,12.83,8.26,21.62.14,5.64-.93,10.6-3.6,16.36-4.73,10.33-14.72,21.73-30.13,34.38l2.25-.75c1.46-1.09,3.44-2.25,8.08-4.8,10.72-5.87,22.78-11.26,37.57-16.82,21.3-8.01,56.32-17.39,76.25-20.43l2.07-.32-.32-.5c-1.82-2.82-3.07-4.57-4.57-6.44-4.37-5.42-9.67-9.81-16.16-13.45-8.92-4.98-20.46-8.87-35.07-11.76-2.75-.55-8.81-1.59-13.72-2.34-10.42-1.62-17.16-2.73-24.58-4-2.66-.46-6.64-1.14-9.28-1.71-1.37-.3-3.98-.91-6.03-1.62-1.64-.64-4.01-1.27-4.51-3.21h0Zm5.87,5.69s.39.11.86.27c.86.3,1.98.64,3.3,1,1,.27,2,.54,3,.8,1.37.34,2.5.66,2.53.66.16.16,2.46,7.51,3.23,10.33.3,1.07.52,1.98.5,1.98-.02.02-.27-.36-.57-.89-2.66-4.69-6.87-9.44-11.74-13.27-.64-.45-1.11-.86-1.11-.89h0Zm11.2,3.09c.11,0,.61.07,1.23.2,3.87.86,10.81,2.18,15.25,2.94.75.11,1.34.25,1.34.3s-.27.2-.61.39c-.75.39-3.78,2.18-4.78,2.87-2.53,1.68-4.8,3.5-6.44,5.14-.66.66-1.23,1.21-1.23,1.21,0,0-.14-.39-.25-.86-.82-3.16-2.53-7.85-4.07-11.15-.25-.52-.46-1-.46-1.05,0,.05,0,.02.02.02h0Zm19.71,3.75c.14.05.36.82.82,2.53.84,3.3,1.23,6.99,1.09,10.42-.05.96-.09,1.84-.14,1.96l-.07.23-1.18-.39c-2.43-.77-6.39-1.93-9.78-2.89-1.93-.52-3.5-1-3.5-1.05,0-.14,2.82-2.96,4.03-4.03,2.3-2.03,8.53-6.85,8.74-6.78h0Zm1.57.23c.07-.07,9.42,1.55,13.68,2.37,3.16.61,7.76,1.57,8.03,1.68.14.05-.34.32-1.87,1-6.01,2.71-10.47,5.14-14.9,8.1-1.16.77-2.14,1.41-2.16,1.41s-.05-.66-.05-1.46c0-4.32-.86-8.69-2.46-12.38-.16-.36-.3-.71-.27-.73Zm24.19,4.78c.07.07-.23,1.91-.5,3-.82,3.39-3.03,8.42-5.73,13.15-.48.84-.91,1.52-.96,1.55-.05.02-.66-.32-1.37-.73-2.64-1.55-5.64-3-8.92-4.37-.91-.39-1.71-.71-1.73-.75-.16-.14,7.17-4.98,11.04-7.3,3.07-1.87,8.08-4.64,8.17-4.55h0Zm1.73.27c.2,0,4.35,1.14,6.51,1.78,5.35,1.59,11.49,3.85,15.5,5.67l1.66.75-1.16.27c-9.78,2.25-18.16,4.85-26.24,8.12-.66.27-1.25.5-1.3.5s.18-.52.48-1.16c2.43-5.17,4-10.56,4.39-15.16.02-.43.09-.77.16-.77h0Zm-41.23,9.47c.07-.07,3.23.68,4.94,1.16,2.59.73,8.1,2.57,8.1,2.71,0,.02-.61.55-1.34,1.18-2.98,2.48-5.85,5.1-9.28,8.42-1.02.98-1.89,1.78-1.93,1.78s-.07-.14-.05-.32c.52-3.82.41-8.74-.32-13.72-.07-.64-.14-1.18-.11-1.21Zm66.47.07s-1.46,2.41-2.41,3.75c-1.37,1.96-3.37,4.55-7.9,10.24-2.39,3-5.07,6.39-5.96,7.53-.91,1.14-1.66,2.09-1.68,2.09s-.32-.41-.64-.91c-2.55-3.82-5.6-7.17-9.22-10.17-.68-.57-1.43-1.18-1.68-1.37-.25-.18-.46-.36-.46-.39,0-.07,3.87-1.73,6.8-2.91,5.14-2.09,12.15-4.6,17.41-6.21,2.75-.86,5.69-1.71,5.73-1.66h0Zm1.75.45c.09-.02.64.25,1.3.64,5.53,3.16,10.95,7.24,15.22,11.42,1.21,1.18,4.19,4.28,4.14,4.3,0,0-1.05.09-2.28.18-9.58.73-21.84,2.75-33.63,5.6-.8.18-1.5.34-1.55.34s.84-.89,1.96-1.96c6.92-6.67,10.08-10.88,13.81-18.39.52-1.11.98-2.07,1.02-2.14t0,0h0Zm-50.68,5.19c.32.07,3.28,1.46,5.51,2.57,2.05,1.02,5.12,2.66,5.28,2.8.02.02-1.07.59-2.41,1.25-4.28,2.14-7.94,4.16-11.76,6.49-1.09.66-2,1.21-2.02,1.21-.09,0-.07-.09.55-1.21,2.05-3.73,3.69-8.19,4.62-12.54.09-.34.18-.57.25-.57h0Zm-2.96.55c.07.07-.71,2.87-1.18,4.39-.93,2.89-2.5,6.51-4.03,9.24-.36.64-.91,1.57-1.21,2.09l-.57.91-1.27-1.23c-1.48-1.43-2.69-2.32-4.23-3.12-.61-.32-1.09-.59-1.09-.64,0-.18,3.89-3.71,6.87-6.26,2.14-1.84,6.64-5.46,6.71-5.39h0Zm18.09,7.44l1.12.73c2.55,1.66,5.55,3.87,7.85,5.8,1.3,1.07,3.8,3.32,4.3,3.87l.27.3-1.84.52c-10.42,2.89-18.48,5.46-27.88,8.92-1.05.39-1.93.71-2,.71-.14,0-.25.11,2.09-2.05,6.01-5.53,11.33-11.63,15.29-17.57l.8-1.23h0Zm-4.76,1.18s-3.07,4.44-4.94,6.92c-2.23,2.96-6.19,7.92-8.92,11.15-1.14,1.34-2.12,2.46-2.16,2.48-.07.02-.09-.32-.09-.84,0-2.75-.71-5.69-1.93-8.19-.52-1.05-.61-1.3-.5-1.41.43-.39,7.05-4.16,11.24-6.42,2.82-1.5,7.24-3.73,7.3-3.69h0Zm-28.76,7.05c.07,0,.59.27,1.18.59,1.46.8,2.75,1.68,3.91,2.64.05.05-.55.52-1.32,1.09-2.16,1.55-5.44,4.03-7.35,5.55-2,1.59-2.07,1.64-1.84,1.3,1.5-2.3,2.25-3.6,3.05-5.26.71-1.48,1.41-3.23,1.91-4.76.18-.66.41-1.16.45-1.16h0Zm7.67,6.01c.11-.02.25.18.86,1.09,1.3,1.93,2.3,4.53,2.55,6.62l.05.46-3.12,1.21c-5.58,2.16-10.72,4.3-14.2,5.89-.98.46-2.68,1.27-3.8,1.82-1.12.57-2.03,1-2.03.98s.71-.55,1.57-1.18c6.8-4.94,12.7-10.35,17.11-15.77.48-.57.91-1.09.96-1.12h.05s0,0,0,0Zm-3.53.86c.09.09-2.5,3.03-4.28,4.82-4.39,4.48-8.74,7.99-14.13,11.4-.68.43-1.3.82-1.37.86-.16.09.05-.14,2.41-2.71,1.5-1.62,2.64-2.98,3.94-4.66.86-1.11,1.02-1.27,2.28-2.16,3.35-2.41,11.06-7.65,11.15-7.55Z"/>
  </g>
</svg>